<svg width="302" height="167" viewBox="0 0 302 167" fill="none" xmlns="http://www.w3.org/2000/svg">
<rect x="113.5" y="119.5" width="188" height="47" rx="11.5" stroke="white" stroke-opacity="0.1"/>
<path d="M147 143H137" stroke="white" stroke-linecap="round"/>
<path d="M142 148V138" stroke="white" stroke-linecap="round"/>
<path fill-rule="evenodd" clip-rule="evenodd" d="M142 153C147.523 153 152 148.523 152 143C152 137.477 147.523 133 142 133C136.477 133 132 137.477 132 143C132 148.523 136.477 153 142 153Z" stroke="white"/>
<path d="M1.17215 0L1.17215 118.5C-0.161187 126.833 5.69365 143.4 38.4937 143H111.5" stroke="white" stroke-opacity="0.2" stroke-dasharray="2 2"/>
<path d="M178.391 147L180.981 137.2H184.481L187.071 147H186.161L185.321 143.78H180.141L179.301 147H178.391ZM180.351 142.94H185.111L183.781 138.04H181.681L180.351 142.94ZM188.12 147V137.2H191.2C192.665 137.2 193.869 137.667 194.812 138.6C195.764 139.524 196.24 140.691 196.24 142.1C196.24 143.509 195.764 144.681 194.812 145.614C193.869 146.538 192.665 147 191.2 147H188.12ZM189.03 146.16H191.2C192.423 146.16 193.417 145.782 194.182 145.026C194.947 144.27 195.33 143.295 195.33 142.1C195.33 140.905 194.947 139.93 194.182 139.174C193.417 138.418 192.423 138.04 191.2 138.04H189.03V146.16ZM197.636 147V137.2H200.716C202.182 137.2 203.386 137.667 204.328 138.6C205.28 139.524 205.756 140.691 205.756 142.1C205.756 143.509 205.28 144.681 204.328 145.614C203.386 146.538 202.182 147 200.716 147H197.636ZM198.546 146.16H200.716C201.939 146.16 202.933 145.782 203.698 145.026C204.464 144.27 204.846 143.295 204.846 142.1C204.846 140.905 204.464 139.93 203.698 139.174C202.933 138.418 201.939 138.04 200.716 138.04H198.546V146.16ZM209.676 137.2H210.656L212.966 146.16H214.996L217.306 137.2H218.286L215.696 147H212.266L209.676 137.2ZM218.07 147L220.66 137.2H224.16L226.75 147H225.84L225 143.78H219.82L218.98 147H218.07ZM220.03 142.94H224.79L223.46 138.04H221.36L220.03 142.94ZM227.799 147V137.2H231.859C232.923 137.2 233.758 137.48 234.365 138.04C234.981 138.591 235.289 139.314 235.289 140.21C235.289 140.975 235.06 141.624 234.603 142.156C234.155 142.688 233.52 143.019 232.699 143.15L235.219 147H234.169L231.719 143.22H228.709V147H227.799ZM228.709 142.38H231.859C232.689 142.38 233.315 142.193 233.735 141.82C234.164 141.437 234.379 140.901 234.379 140.21C234.379 139.519 234.164 138.987 233.735 138.614C233.315 138.231 232.689 138.04 231.859 138.04H228.709V142.38ZM236.754 147V137.2H237.664V147H236.754ZM238.716 147L241.306 137.2H244.806L247.396 147H246.486L245.646 143.78H240.466L239.626 147H238.716ZM240.676 142.94H245.436L244.106 138.04H242.006L240.676 142.94ZM248.445 147V137.2H249.845L255.165 146.09H255.179L255.165 145.95V137.2H256.075V147H254.675L249.355 138.11H249.341L249.355 138.25V147H248.445ZM256.909 138.04V137.2H264.819V138.04H261.319V147H260.409V138.04H256.909Z" fill="white"/>
</svg>
