<svg version="1.2" xmlns="http://www.w3.org/2000/svg" viewBox="0 0 1000 322" width="149" height="42">
	<title>New Project</title>
	<style>
		.s0 { fill: #f3ba2f } 
	</style>
	<g id="katman 1">
		<g id="&lt;desc&gt;">
		</g>
		<g id="&lt;Group&gt;">
			<path id="Shape" fill-rule="evenodd" class="s0" d="m361 78.6c9.3 0 16.1 2.5 20.5 6.8 4.3 3.7 6.2 8.7 6.2 13.7 0 1.8 0 4.3-0.7 6.2-1.2 3.1-3.1 6.2-5.5 8.6-1.3 1.3-2.5 1.9-3.8 2.5 4.4 1.3 8.1 3.8 11.2 6.9 2.5 3.1 3.7 6.8 3.7 12.4 0 3.1-0.6 6.8-1.8 9.3-1.3 2.4-3.8 4.9-6.2 6.8-3.1 1.8-6.2 3.1-9.3 4.3-3.8 1.3-8.1 1.3-12.4 1.3h-37.9v-78.8zm-3.1 32.2q4.7 0 9.3-1.8c2.5-1.3 3.8-3.7 3.8-6.2 0-2.5-1.3-5-3.1-6.2-2.5-1.9-5.6-2.5-8.7-1.9h-17.4v16.8h16.1zm4.4 31.6q4.6 0 9.3-1.9c2.5-1.2 3.7-3.7 3.1-6.8 0-2.5-1.3-4.9-3.1-6.2-1.9-1.2-5.6-2.5-9.9-2.5h-20.5v17.4z"/>
			<path id="Path" class="s0" d="m414.3 78.6h17.4v79.4h-17.4z"/>
			<path id="Path 1 " class="s0" d="m458.4 78.6h16.1l37.2 49v-49h17.3v79.4h-14.8l-39.1-50.3v50.3h-16.7z"/>
			<path id="Shape 1 " fill-rule="evenodd" class="s0" d="m581.8 78h16.1l34.1 80h-18l-7.4-18h-33.5l-7.5 18h-18zm18.6 47.1l-10.5-26-10.5 26z"/>
			<path id="Path 2 " class="s0" d="m650.6 78.6h16.1l37.2 49v-49h17.4v79.4h-14.9l-38.5-50.3v50.3h-17.3z"/>
			<path id="Path 3 " class="s0" d="m784.5 159.2c-5.6 0-11.1-1.2-16.1-3.1-9.9-4.3-17.4-11.8-21.7-21.7-1.9-4.9-3.1-10.5-3.1-16.1 0-10.6 4.3-21.1 11.8-29.2 3.7-3.7 8-6.8 13-8.6 5.6-2.5 11.2-3.1 16.7-3.1 3.1 0 6.9 0 10 0.6 3.1 0.6 5.5 1.2 8 2.5 2.5 1.2 5 2.4 6.8 3.7 1.9 1.2 4.4 3.1 6.2 4.9l-10.5 13.1c-3.1-2.5-6.2-5-9.3-6.9-3.1-1.8-6.8-2.4-10.5-2.4q-4.7 0-9.3 1.8-4.7 1.9-7.5 5.6c-1.8 2.5-3.7 5-4.9 8.1q-1.9 4.6-1.9 9.3c0 3.1 0.6 6.8 1.9 9.9 1.2 3.1 2.4 5.6 4.9 8.1 4.4 4.9 10.6 7.4 16.8 7.4 3.7 0 8-0.6 11.7-2.5 3.1-1.8 6.9-4.3 9.3-6.8l11.2 11.2c-1.9 1.8-4.3 4.3-6.2 6.2-2.5 1.8-5 3.1-7.4 4.3-2.5 1.2-5.6 2.5-8.7 3.1-4.4 0.6-8.1 0.6-11.2 0.6z"/>
			<path id="Path 4 " class="s0" d="m837.9 78.6h59.5v15.5h-42.8v16.1h37.8v15.5h-37.8v16.8h43.4v15.5h-60.1z"/>
			<path id="Path 5 " class="s0" d="m346.7 236.1c-4.3 0-8.6-0.6-12.4-2.5-3.7-1.2-7.4-3.7-11.1-6.8l6.2-6.8c2.5 2.5 4.9 3.7 8 5.6q4.7 1.8 9.3 1.8 3.8 0 7.5-1.8c1.8-1.3 2.5-3.1 2.5-5 0-0.6 0-1.9-0.7-2.5-0.6-0.6-1.2-1.8-1.8-2.5q-1.9-0.9-3.7-1.8c-1.9-0.6-4.4-1.3-6.2-1.9-2.5-0.6-5.6-1.2-8.1-2.5-1.9-0.6-4.3-1.8-5.6-3.1-1.2-1.2-2.5-2.4-3.7-4.3-1.2-2.5-1.2-5-1.2-6.8 0-2.5 0.6-4.4 1.2-6.8 0.6-1.9 2.5-3.8 3.7-5 1.9-1.2 3.7-2.5 6.2-3.1 2.5-0.6 5-1.2 7.5-1.2q5.5 0 11.1 1.8c3.1 1.3 6.2 3.1 9.3 5l-4.9 7.4c-2.5-1.8-5-3.1-7.5-4.3-2.5-1.3-4.9-1.3-7.4-1.3-2.5 0-5 0.7-6.8 1.9-1.3 1.2-2.5 3.1-2.5 5 0 1.2 0 1.8 0.6 3.1 0.6 0.6 1.2 1.8 1.9 2.4 1.2 0.7 2.4 1.3 4.3 1.9 1.9 0.6 3.7 1.2 6.8 1.9 2.5 0.6 5 1.2 8.1 2.4 1.8 0.7 3.7 1.9 5.6 3.1 1.2 1.3 2.4 3.1 3.1 4.4 0.6 1.8 1.2 3.7 1.2 6.2 0 2.5-0.6 4.9-1.2 6.8-1.3 1.9-2.5 3.7-4.4 5.6-1.8 1.2-3.7 2.5-6.2 3.1-3.1 0-6.2 0.6-8.7 0.6z"/>
			<path id="Path 6 " class="s0" d="m377.7 179.7h10.6l16.7 26 17.4-26h10.5v55.8h-9.9v-40.3l-17.4 26h-0.6l-17.3-26v40.3h-10z"/>
			<path id="Shape 2 " fill-rule="evenodd" class="s0" d="m466.4 179.1h9.3l24.2 55.8h-10.5l-5.6-13.7h-26.1l-5.5 13.7h-10zm14.3 34.1l-9.9-22.4-9.3 22.4z"/>
			<path id="Shape 3 " fill-rule="evenodd" class="s0" d="m509.8 179.7h24.8c3.1 0 6.2 0.6 9.3 1.2 2.5 0.6 5 2.5 6.8 4.4q1.9 1.8 3.8 5.5c0.6 1.9 1.2 4.4 1.2 6.9 0 1.8-0.6 4.3-1.2 6.2-0.7 1.8-1.9 3.1-2.5 4.9-1.3 1.3-2.5 2.5-4.4 3.7-1.8 1.3-3.7 1.9-5.5 2.5l14.8 21.1h-11.7l-13.7-19.2h-12.4v19.2h-9.9zm24.2 27.3c3.1 0 6.2-0.6 8-2.5 1.9-1.8 3.1-4.3 3.1-6.8 0-2.5-1.2-5-3.1-6.8-2.4-1.9-5.5-2.5-8.6-2.5h-14.3v18.6z"/>
			<path id="Path 7 " class="s0" d="m581.1 188.4h-18v-8.7h45.3v8.7h-18v47.1h-9.9z"/>
			<path id="Path 8 " class="s0" d="m668.6 236.1c-3.8 0-7.5-0.6-11.2-2.5-6.8-3.1-12.4-8-14.9-14.9-1.2-3.7-2.5-7.4-1.8-11.1q0-5.6 1.8-11.2c2.5-6.8 8.1-12.4 14.9-15.5 3.7-1.2 7.4-2.5 11.8-2.5 2.5 0 4.9 0 6.8 0.7q2.8 0.9 5.6 1.8c1.8 0.6 3.1 1.9 4.9 2.5 1.3 1.2 3.1 2.5 4.4 3.7l-6.2 7.5c-1.9-1.9-4.4-3.8-6.8-5-2.5-1.2-5.6-1.9-8.7-1.9-2.5 0-5 0.7-7.5 1.3-2.4 1.2-4.3 2.5-6.2 4.3-1.8 1.9-3.1 3.7-3.7 6.2-0.6 2.5-1.2 5-1.2 7.5 0 2.4 0.6 4.9 1.2 7.4 0.6 2.5 1.9 4.3 3.7 6.2 1.9 1.9 3.8 3.1 6.2 4.3 2.5 1.3 5 1.9 7.5 1.3 3.1 0 6.2-0.6 8.7-1.9q3.7-1.8 7.4-5.6l6.2 6.2c-1.2 1.3-3.1 3.1-4.3 4.4-1.9 1.2-3.1 2.5-5 3.1-1.9 0.6-3.7 1.8-6.2 1.8-2.5 1.9-5 1.9-7.4 1.9z"/>
			<path id="Path 9 " class="s0" d="m701.4 179.7h9.3v22.9h26.7v-22.9h9.9v55.8h-9.9v-23.6h-26.7v23.6h-9.3z"/>
			<path id="Shape 4 " fill-rule="evenodd" class="s0" d="m781.4 179.1h9.3l24.2 55.8h-10.5l-5.6-13.7h-26.1l-5.5 13.7h-10zm13.7 34.1l-9.3-22.4-9.3 22.4z"/>
			<path id="Path 10 " class="s0" d="m824.8 179.7h10v55.8h-10z"/>
			<path id="Path 11 " class="s0" d="m849.6 179.7h8.7l29.8 38.4v-38.4h9.9v55.8h-8.1l-30.3-39.7v39.7h-10z"/>
			<path id="binancedex" fill-rule="evenodd" class="s0" d="m215.3 231.8v24.2l-21.1 12.4-20.5-12.4v-24.2l20.5 12.4zm-112.9-83.7l20.5 12.4v41.5l35.3 21.1v24.2l-55.8-32.9zm183.6 0v66.4l-56.4 32.8v-24.2l35.3-21v-41.6zm-56.4-32.9l21.1 12.4v24.2l-35.4 21.1v42.2l-20.5 12.4-20.4-12.4v-42.2l-36.6-21.1v-24.2l21.1-12.4 35.3 21.1zm-91.7 54l20.4 12.4v24.2l-20.4-12.4zm112.8 0v24.1l-20.5 12.4v-24.1zm-127.7-75.1l21.1 12.4-21.1 12.4v24.2l-20.5-12.4v-24.2zm142.7 0l21 12.4v24.2l-21 12.4v-24.2l-20.5-12.4zm-71.3 0l21.1 12.4-21.1 12.4-20.5-12.4zm0-41.5l56.5 32.9-20.5 12.4-35.4-21.1-35.9 21.1-20.5-12.4z"/>
		</g>
	</g>
</svg>