<svg width="22" height="22" viewBox="0 0 22 22" fill="none" xmlns="http://www.w3.org/2000/svg">
<g clip-path="url(#clip0_20_2558)">
<path d="M11 4.05949e-07C13.1756 4.05949e-07 15.3023 0.64514 17.1113 1.85384C18.9202 3.06253 20.3301 4.7805 21.1627 6.79048C21.9952 8.80047 22.2131 11.0122 21.7886 13.146C21.3642 15.2798 20.3166 17.2398 18.7782 18.7782C17.2398 20.3166 15.2798 21.3642 13.146 21.7886C11.0122 22.2131 8.80047 21.9952 6.79048 21.1627C4.7805 20.3301 3.06253 18.9202 1.85384 17.1113C0.64514 15.3023 4.05949e-07 13.1756 4.05949e-07 11C-0.000392109 9.55535 0.283863 8.12478 0.836526 6.79002C1.38919 5.45526 2.19943 4.24247 3.22095 3.22095C4.24247 2.19943 5.45526 1.38919 6.79002 0.836526C8.12478 0.283863 9.55535 -0.000392109 11 4.05949e-07Z" fill="#F0B90B"/>
<path d="M8.15301 9.82003L9.82004 8.15898L10.1696 7.80646L11.0031 6.97593L13.8382 9.82003L15.4873 8.15898L11.0031 3.66577L6.50391 8.15898L8.15301 9.82003Z" fill="white"/>
<path d="M11.0048 9.3399L9.34863 10.9961L11.0048 12.6523L12.661 10.9961L11.0048 9.3399Z" fill="white"/>
<path d="M13.8382 12.186L11.0031 15.0212L10.0053 14.0263L9.82303 13.8411L8.15301 12.186L6.50391 13.8351L11.0031 18.3283L15.4873 13.8351L13.8382 12.186Z" fill="white"/>
<path d="M5.3222 9.34454L3.66602 11.0007L5.3222 12.6569L6.97839 11.0007L5.3222 9.34454Z" fill="white"/>
<path d="M16.6747 9.34454L15.0186 11.0007L16.6747 12.6569L18.3309 11.0007L16.6747 9.34454Z" fill="white"/>
</g>
<defs>
<clipPath id="clip0_20_2558">
<rect width="22" height="22" fill="white"/>
</clipPath>
</defs>
</svg>
