<svg width="53" height="48" viewBox="0 0 53 48" fill="none" xmlns="http://www.w3.org/2000/svg">
<g clip-path="url(#clip0_1_1835)">
<path d="M26.0908 0L10.1602 29.308H12.6338L26.0908 4.55352L48.5265 45.8228H47.0839L26.0731 7.23961L14.0764 29.308H16.5501L26.0731 11.7887L44.6058 45.8228H42.7074L26.0731 15.2846L18.4441 29.308H20.9222L26.0731 19.8293L31.6621 30.0913L32.4233 31.4852L33.6048 33.658H33.6092L34.0517 34.4766L35.2333 36.6494L35.6802 37.4636L36.8617 39.6364L37.0078 39.9063L41.4152 48H52.1773L26.0908 0Z" fill="#53FCFF"/>
<path d="M9.4699 45.8272H7.57592L9.3814 42.5083H6.90329L5.09782 45.8272H3.65078L5.45625 42.5083H2.98258L0 48H10.7621L13.7535 42.5083H11.2709L9.4699 45.8272Z" fill="#53FCFF"/>
<path d="M30.2508 30.9851H9.24888L8.07178 33.149H31.4279L30.2508 30.9851Z" fill="#53FCFF"/>
<path d="M32.3571 34.8528H7.14683L5.96973 37.0167H33.5342L32.3571 34.8528Z" fill="#53FCFF"/>
<path d="M5.06672 38.676L3.89404 40.8355H35.6094L34.4367 38.676H5.06672Z" fill="#53FCFF"/>
</g>
<defs>
<clipPath id="clip0_1_1835">
<rect width="52.1774" height="48" fill="white"/>
</clipPath>
</defs>
</svg>
