<svg width="35" height="608" viewBox="0 0 35 608" fill="none" xmlns="http://www.w3.org/2000/svg">
<line x1="0.5" y1="3" x2="0.500026" y2="605" stroke="#ADB7D7" stroke-opacity="0.2"/>
<line y1="2.5" x2="32" y2="2.5" stroke="#ADB7D7" stroke-opacity="0.2"/>
<ellipse cx="31.546" cy="2.54604" rx="2.54604" ry="2.54604" fill="white"/>
<line y1="79.5" x2="32" y2="79.5" stroke="#ADB7D7" stroke-opacity="0.2"/>
<ellipse cx="31.546" cy="79.546" rx="2.54604" ry="2.54604" fill="white"/>
<line y1="156.5" x2="32" y2="156.5" stroke="#ADB7D7" stroke-opacity="0.2"/>
<ellipse cx="31.546" cy="156.546" rx="2.54604" ry="2.54604" fill="white"/>
<line y1="242.5" x2="32" y2="242.5" stroke="#ADB7D7" stroke-opacity="0.2"/>
<ellipse cx="31.546" cy="242.546" rx="2.54604" ry="2.54604" fill="white"/>
<line y1="337.5" x2="32" y2="337.5" stroke="#ADB7D7" stroke-opacity="0.2"/>
<ellipse cx="31.546" cy="337.546" rx="2.54604" ry="2.54604" fill="white"/>
<line y1="423.5" x2="32" y2="423.5" stroke="#ADB7D7" stroke-opacity="0.2"/>
<ellipse cx="31.546" cy="423.546" rx="2.54604" ry="2.54604" fill="white"/>
<line y1="509.5" x2="32" y2="509.5" stroke="#ADB7D7" stroke-opacity="0.2"/>
<ellipse cx="31.546" cy="509.546" rx="2.54604" ry="2.54604" fill="white"/>
<line y1="604.5" x2="32" y2="604.5" stroke="#ADB7D7" stroke-opacity="0.2"/>
<ellipse cx="31.546" cy="604.546" rx="2.54604" ry="2.54604" fill="white"/>
</svg>
