<svg width="49" height="95" viewBox="0 0 49 95" fill="none" xmlns="http://www.w3.org/2000/svg">
<g clip-path="url(#clip0_58_40)">
<rect x="107.053" y="-53.4772" width="6" height="171.386" transform="rotate(60 107.053 -53.4772)" fill="#5495F8" fill-opacity="0.3"/>
<rect x="107.425" y="-40" width="6" height="171.386" transform="rotate(60 107.425 -40)" fill="#5495F8" fill-opacity="0.3"/>
<rect x="107.797" y="-26.5228" width="6" height="171.386" transform="rotate(60 107.797 -26.5228)" fill="#5495F8" fill-opacity="0.3"/>
<rect x="108.17" y="-13.0457" width="6" height="171.386" transform="rotate(60 108.17 -13.0457)" fill="#5495F8" fill-opacity="0.3"/>
<rect x="108.542" y="0.431519" width="6" height="171.386" transform="rotate(60 108.542 0.431519)" fill="#5495F8" fill-opacity="0.3"/>
<rect x="108.914" y="13.9087" width="6" height="171.386" transform="rotate(60 108.914 13.9087)" fill="#5495F8" fill-opacity="0.3"/>
<rect x="109.287" y="27.3859" width="6" height="171.386" transform="rotate(60 109.287 27.3859)" fill="#5495F8" fill-opacity="0.3"/>
<rect x="109.659" y="40.863" width="6" height="171.386" transform="rotate(60 109.659 40.863)" fill="#5495F8" fill-opacity="0.3"/>
</g>
<defs>
<clipPath id="clip0_58_40">
<rect width="49" height="95" fill="white"/>
</clipPath>
</defs>
</svg>
