<svg width="1000" height="1000" viewBox="0 0 1000 1000" fill="none" xmlns="http://www.w3.org/2000/svg">
<path d="M955.7 161.7L617.9 673.6C615.8 676.7 611 675.3 611 671.5L610.7 556.8C610.7 556 610.9 555.3 611.4 554.7L757.5 340.6C759.7 337.4 756.2 333.4 752.7 335.1L570 427.4C568.7 428 567.9 429.3 567.9 430.8L568.7 840.5C568.7 844.2 564 845.7 561.8 842.7L209.1 337.7C206.9 334.5 210.4 330.4 213.9 332.2L332.2 391.3C332.8 391.6 333.3 392 333.6 392.6L480 609.1C482.1 612.2 486.9 610.7 486.9 607L486.4 430.9C486.4 429.5 485.6 428.1 484.3 427.5L43.5996 217.2L759.9 215.8C763.9 215.8 765.2 221.3 761.5 223L642.8 277.6C642.3 277.8 641.7 278 641.2 277.9L344.8 275C340.8 275 339.5 280.4 343.1 282.2L511.9 362.7C521.5 367.3 532.6 367.1 542 362.4L950.9 156.3C954.4 154.5 957.9 158.4 955.7 161.7Z" fill="white"/>
</svg>
