<svg width="24" height="24" viewBox="0 0 24 24" fill="none" xmlns="http://www.w3.org/2000/svg">
<path d="M24 14.8948V16.1023C24 16.1716 23.956 16.2333 23.892 16.2602C23.5 16.422 22.158 17.0152 21.6 17.7625C20.176 19.6711 19.088 22.4001 16.656 22.4001H6.50998C2.91402 22.4001 0 19.5844 0 16.11V15.9983C0 15.9059 0.0779825 15.8308 0.173991 15.8308H5.83002C5.94199 15.8308 6.02398 15.9309 6.01402 16.0368C5.97399 16.3912 6.04201 16.7533 6.216 17.0826C6.55199 17.7394 7.248 18.1496 7.99999 18.1496H10.8V16.0445H8.03199C7.89 16.0445 7.80602 15.8866 7.88802 15.7749C7.91799 15.7306 7.95202 15.6844 7.988 15.6324C8.25001 15.2742 8.624 14.7176 8.99601 14.084C9.25001 13.6564 9.49599 13.2 9.694 12.7416C9.73402 12.6588 9.76599 12.574 9.79799 12.4912C9.85199 12.3448 9.90801 12.2081 9.948 12.0714C9.98802 11.9558 10.02 11.8345 10.052 11.7208C10.146 11.3318 10.186 10.9196 10.186 10.4921C10.186 10.3246 10.178 10.1493 10.162 9.98173C10.154 9.79878 10.13 9.61578 10.106 9.43283C10.09 9.27105 10.06 9.11119 10.028 8.94364C9.98802 8.69905 9.932 8.45641 9.86799 8.21178L9.84599 8.11937C9.79799 7.95178 9.75801 7.79196 9.70202 7.62441C9.54399 7.0986 9.36202 6.58632 9.17 6.10678C9.1 5.9161 9.01999 5.73314 8.93999 5.55019C8.82202 5.27478 8.70199 5.02441 8.592 4.78751C8.53602 4.67964 8.48801 4.58142 8.44001 4.48128C8.38601 4.36764 8.33002 4.25401 8.274 4.14619C8.23401 4.06337 8.18799 3.98632 8.15599 3.90928L7.814 3.30069C7.766 3.21787 7.84601 3.11964 7.93999 3.14469L10.08 3.70319H10.086C10.09 3.70319 10.092 3.70514 10.094 3.70514L10.376 3.78024L10.686 3.865L10.8 3.89578V2.67091C10.8 2.07964 11.292 1.6001 11.9 1.6001C12.204 1.6001 12.48 1.71951 12.678 1.91401C12.876 2.10855 13 2.37432 13 2.67091V4.489L13.228 4.5506C13.246 4.55641 13.264 4.5641 13.28 4.57564C13.336 4.6161 13.416 4.67578 13.518 4.749C13.598 4.8106 13.684 4.88573 13.788 4.96278C13.994 5.1226 14.24 5.32869 14.51 5.56559C14.582 5.62528 14.652 5.68692 14.716 5.74855C15.064 6.06055 15.454 6.42646 15.826 6.83092C15.93 6.94455 16.032 7.0601 16.136 7.18142C16.24 7.30469 16.35 7.42601 16.446 7.54737C16.572 7.70914 16.708 7.87669 16.826 8.05196C16.882 8.13478 16.946 8.21951 17 8.30232C17.152 8.52378 17.286 8.753 17.414 8.98219C17.468 9.0881 17.524 9.20364 17.572 9.31728C17.714 9.62351 17.826 9.93551 17.898 10.2475C17.92 10.3149 17.936 10.3881 17.944 10.4536V10.469C17.968 10.5614 17.976 10.6596 17.984 10.7598C18.016 11.0795 18 11.3992 17.928 11.7208C17.898 11.8576 17.858 11.9866 17.81 12.1234C17.762 12.2543 17.714 12.3911 17.652 12.5201C17.532 12.7878 17.39 13.0555 17.222 13.3059C17.168 13.3983 17.104 13.4965 17.04 13.589C16.97 13.6872 16.898 13.7796 16.834 13.8702C16.746 13.9857 16.652 14.1071 16.556 14.2149C16.47 14.3285 16.382 14.4422 16.286 14.5423C16.152 14.6945 16.024 14.8389 15.89 14.9776C15.81 15.0681 15.724 15.1605 15.636 15.2434C15.55 15.3358 15.462 15.4186 15.382 15.4956C15.248 15.6247 15.136 15.7248 15.042 15.8076L14.822 16.0022C14.79 16.0291 14.748 16.0445 14.704 16.0445H13V18.1496H15.144C15.624 18.1496 16.08 17.9859 16.448 17.6854C16.574 17.5795 17.124 17.1211 17.774 16.4297C17.796 16.4066 17.824 16.3893 17.856 16.3816L23.778 14.733C23.888 14.7022 24 14.7831 24 14.8948Z" fill="white"/>
</svg>
