<svg width="327" height="392" viewBox="0 0 327 392" fill="none" xmlns="http://www.w3.org/2000/svg">
<rect width="289.145" height="124.034" rx="9.66502" fill="url(#paint0_linear_313_363)"/>
<rect x="110.342" y="155.446" width="216.658" height="38.6601" rx="9.66502" fill="url(#paint1_linear_313_363)"/>
<rect x="110.342" y="220.685" width="216.658" height="38.6601" rx="9.66502" fill="url(#paint2_linear_313_363)"/>
<path d="M0 19.3301C0 10.2178 0 5.66164 2.83082 2.83082C5.66164 0 10.2178 0 19.33 0H40.2709V124.034H19.33C10.2178 124.034 5.66164 124.034 2.83082 121.204C0 118.373 0 113.817 0 104.704V19.3301Z" fill="#F6C33F"/>
<path d="M25.7742 56.7482L25.9157 59.7497H25.5571C25.4879 59.2211 25.3935 58.8436 25.2739 58.617C25.0789 58.2521 24.8177 57.9847 24.4905 57.8148C24.1696 57.6386 23.7449 57.5505 23.2163 57.5505H21.4136V67.3288C21.4136 68.1153 21.4985 68.6061 21.6684 68.8012C21.9075 69.0655 22.2756 69.1976 22.7727 69.1976H23.2163V69.5468H17.7892V69.1976H18.2422C18.7834 69.1976 19.1672 69.034 19.3937 68.7068C19.5322 68.5054 19.6014 68.0461 19.6014 67.3288V57.5505H18.0629C17.4651 57.5505 17.0404 57.5945 16.7887 57.6826C16.4615 57.8022 16.1815 58.0318 15.9487 58.3716C15.7159 58.7114 15.5774 59.1708 15.5334 59.7497H15.1747L15.3257 56.7482H25.7742Z" fill="white"/>
<rect x="50.7422" y="159.473" width="42.6872" height="25.7734" rx="12.8867" fill="white" fill-opacity="0.1"/>
<path d="M61.3277 173.717H62.6808C62.741 173.951 62.8424 174.15 62.9853 174.315C63.316 174.706 63.7971 174.901 64.4286 174.901C64.9322 174.901 65.3306 174.766 65.6238 174.496C65.917 174.225 66.0636 173.872 66.0636 173.436C66.0636 172.977 65.917 172.609 65.6238 172.331C65.3306 172.052 64.9322 171.913 64.4286 171.913C63.9625 171.913 63.5679 172.037 63.2446 172.285C63.1168 172.383 63.0041 172.503 62.9063 172.646H61.666L62.0043 168.023H66.7965V169.264H63.0755L62.9063 171.293H62.9627C63.083 171.173 63.2221 171.071 63.3799 170.989C63.7332 170.778 64.158 170.673 64.6541 170.673C65.4434 170.673 66.1012 170.936 66.6274 171.462C67.1536 171.989 67.4167 172.646 67.4167 173.436C67.4167 174.21 67.1385 174.856 66.5823 175.375C66.0335 175.886 65.3156 176.142 64.4286 176.142C63.2709 176.142 62.4102 175.74 61.8464 174.935C61.6059 174.582 61.433 174.176 61.3277 173.717ZM68.9416 174.969C68.2274 174.187 67.8704 173.188 67.8704 171.97C67.8704 170.752 68.2274 169.752 68.9416 168.97C69.6557 168.189 70.5202 167.798 71.535 167.798C72.5498 167.798 73.4143 168.189 74.1285 168.97C74.8426 169.752 75.1997 170.752 75.1997 171.97C75.1997 173.188 74.8426 174.187 74.1285 174.969C73.4143 175.751 72.5498 176.142 71.535 176.142C70.5202 176.142 69.6557 175.751 68.9416 174.969ZM69.8662 169.805C69.4377 170.316 69.2235 171.038 69.2235 171.97C69.2235 172.902 69.4377 173.624 69.8662 174.135C70.3022 174.646 70.8585 174.901 71.535 174.901C72.2116 174.901 72.7641 174.646 73.1926 174.135C73.6286 173.624 73.8466 172.902 73.8466 171.97C73.8466 171.038 73.6286 170.316 73.1926 169.805C72.7641 169.294 72.2116 169.038 71.535 169.038C70.8585 169.038 70.3022 169.294 69.8662 169.805ZM76.251 171.09C75.8901 170.722 75.7097 170.282 75.7097 169.771C75.7097 169.26 75.8901 168.824 76.251 168.463C76.6193 168.095 77.0591 167.91 77.5702 167.91C78.0814 167.91 78.5174 168.095 78.8782 168.463C79.2466 168.824 79.4308 169.26 79.4308 169.771C79.4308 170.282 79.2466 170.722 78.8782 171.09C78.5174 171.451 78.0814 171.631 77.5702 171.631C77.0591 171.631 76.6193 171.451 76.251 171.09ZM76.6682 175.916L81.404 168.023H82.5316L77.7958 175.916H76.6682ZM76.9275 169.083C76.7546 169.256 76.6682 169.485 76.6682 169.771C76.6682 170.057 76.7546 170.29 76.9275 170.47C77.1004 170.643 77.3147 170.729 77.5702 170.729C77.8258 170.729 78.0401 170.643 78.213 170.47C78.3859 170.29 78.4723 170.057 78.4723 169.771C78.4723 169.485 78.3859 169.256 78.213 169.083C78.0401 168.903 77.8258 168.812 77.5702 168.812C77.3147 168.812 77.1004 168.903 76.9275 169.083ZM80.3103 175.488C79.9494 175.119 79.769 174.68 79.769 174.169C79.769 173.657 79.9494 173.221 80.3103 172.861C80.6786 172.492 81.1184 172.308 81.6296 172.308C82.1407 172.308 82.5767 172.492 82.9376 172.861C83.3059 173.221 83.4901 173.657 83.4901 174.169C83.4901 174.68 83.3059 175.119 82.9376 175.488C82.5767 175.849 82.1407 176.029 81.6296 176.029C81.1184 176.029 80.6786 175.849 80.3103 175.488ZM80.9868 173.481C80.8139 173.654 80.7275 173.883 80.7275 174.169C80.7275 174.454 80.8139 174.687 80.9868 174.868C81.1597 175.041 81.374 175.127 81.6296 175.127C81.8851 175.127 82.0994 175.041 82.2723 174.868C82.4452 174.687 82.5316 174.454 82.5316 174.169C82.5316 173.883 82.4452 173.654 82.2723 173.481C82.0994 173.3 81.8851 173.21 81.6296 173.21C81.374 173.21 81.1597 173.3 80.9868 173.481Z" fill="white"/>
<path d="M129.954 173.033V171.567L131.42 170.439H132.604V178.333H131.307V172.018L129.954 173.033Z" fill="white"/>
<path d="M130.01 243.571V242.331L132.705 240.425C133.291 240.004 133.712 239.614 133.968 239.253C134.224 238.892 134.351 238.509 134.351 238.103C134.351 237.674 134.22 237.332 133.957 237.077C133.694 236.821 133.337 236.693 132.885 236.693C132.329 236.693 131.912 236.919 131.634 237.37C131.514 237.565 131.423 237.791 131.363 238.046H130.01C130.078 237.565 130.224 237.133 130.45 236.75C130.984 235.885 131.795 235.453 132.885 235.453C133.72 235.453 134.396 235.701 134.915 236.197C135.441 236.686 135.704 237.302 135.704 238.046C135.704 238.693 135.539 239.275 135.208 239.794C134.878 240.305 134.348 240.813 133.618 241.316L132.491 242.106L131.983 242.331V242.387L132.66 242.331H135.704V243.571H130.01Z" fill="white"/>
<rect x="50.7422" y="227.128" width="42.6872" height="25.7734" rx="12.8867" fill="white" fill-opacity="0.1"/>
<path d="M61.3277 241.373H62.6808C62.741 241.606 62.8424 241.805 62.9853 241.97C63.316 242.361 63.7971 242.557 64.4286 242.557C64.9322 242.557 65.3306 242.421 65.6238 242.151C65.917 241.88 66.0636 241.527 66.0636 241.091C66.0636 240.632 65.917 240.264 65.6238 239.986C65.3306 239.708 64.9322 239.568 64.4286 239.568C63.9625 239.568 63.5679 239.693 63.2446 239.941C63.1168 240.038 63.0041 240.159 62.9063 240.301H61.666L62.0043 235.678H66.7965V236.919H63.0755L62.9063 238.948H62.9627C63.083 238.828 63.2221 238.727 63.3799 238.644C63.7332 238.433 64.158 238.328 64.6541 238.328C65.4434 238.328 66.1012 238.591 66.6274 239.117C67.1536 239.644 67.4167 240.301 67.4167 241.091C67.4167 241.865 67.1385 242.511 66.5823 243.03C66.0335 243.541 65.3156 243.797 64.4286 243.797C63.2709 243.797 62.4102 243.395 61.8464 242.59C61.6059 242.237 61.433 241.831 61.3277 241.373ZM68.9416 242.624C68.2274 241.842 67.8704 240.843 67.8704 239.625C67.8704 238.407 68.2274 237.407 68.9416 236.625C69.6557 235.844 70.5202 235.453 71.535 235.453C72.5498 235.453 73.4143 235.844 74.1285 236.625C74.8426 237.407 75.1997 238.407 75.1997 239.625C75.1997 240.843 74.8426 241.842 74.1285 242.624C73.4143 243.406 72.5498 243.797 71.535 243.797C70.5202 243.797 69.6557 243.406 68.9416 242.624ZM69.8662 237.46C69.4377 237.971 69.2235 238.693 69.2235 239.625C69.2235 240.557 69.4377 241.279 69.8662 241.79C70.3022 242.301 70.8585 242.557 71.535 242.557C72.2116 242.557 72.7641 242.301 73.1926 241.79C73.6286 241.279 73.8466 240.557 73.8466 239.625C73.8466 238.693 73.6286 237.971 73.1926 237.46C72.7641 236.949 72.2116 236.693 71.535 236.693C70.8585 236.693 70.3022 236.949 69.8662 237.46ZM76.251 238.745C75.8901 238.377 75.7097 237.937 75.7097 237.426C75.7097 236.915 75.8901 236.479 76.251 236.118C76.6193 235.75 77.0591 235.566 77.5702 235.566C78.0814 235.566 78.5174 235.75 78.8782 236.118C79.2466 236.479 79.4308 236.915 79.4308 237.426C79.4308 237.937 79.2466 238.377 78.8782 238.745C78.5174 239.106 78.0814 239.287 77.5702 239.287C77.0591 239.287 76.6193 239.106 76.251 238.745ZM76.6682 243.571L81.404 235.678H82.5316L77.7958 243.571H76.6682ZM76.9275 236.738C76.7546 236.911 76.6682 237.14 76.6682 237.426C76.6682 237.712 76.7546 237.945 76.9275 238.125C77.1004 238.298 77.3147 238.385 77.5702 238.385C77.8258 238.385 78.0401 238.298 78.213 238.125C78.3859 237.945 78.4723 237.712 78.4723 237.426C78.4723 237.14 78.3859 236.911 78.213 236.738C78.0401 236.558 77.8258 236.468 77.5702 236.468C77.3147 236.468 77.1004 236.558 76.9275 236.738ZM80.3103 243.143C79.9494 242.775 79.769 242.335 79.769 241.824C79.769 241.312 79.9494 240.876 80.3103 240.516C80.6786 240.147 81.1184 239.963 81.6296 239.963C82.1407 239.963 82.5767 240.147 82.9376 240.516C83.3059 240.876 83.4901 241.312 83.4901 241.824C83.4901 242.335 83.3059 242.775 82.9376 243.143C82.5767 243.504 82.1407 243.684 81.6296 243.684C81.1184 243.684 80.6786 243.504 80.3103 243.143ZM80.9868 241.136C80.8139 241.309 80.7275 241.538 80.7275 241.824C80.7275 242.109 80.8139 242.342 80.9868 242.523C81.1597 242.696 81.374 242.782 81.6296 242.782C81.8851 242.782 82.0994 242.696 82.2723 242.523C82.4452 242.342 82.5316 242.109 82.5316 241.824C82.5316 241.538 82.4452 241.309 82.2723 241.136C82.0994 240.955 81.8851 240.865 81.6296 240.865C81.374 240.865 81.1597 240.955 80.9868 241.136Z" fill="white"/>
<path d="M93.4277 173.165L110.342 173.165" stroke="white" stroke-width="0.805419"/>
<path d="M93.4277 240.015L110.342 240.015" stroke="white" stroke-width="0.805419"/>
<path d="M20.5365 124.034V153.432C19.4626 160.144 23.9192 173.487 50.337 173.165" stroke="white" stroke-width="0.805419"/>
<path d="M20.2793 124.84L20.2793 220.282C19.2054 226.994 23.921 240.337 50.3387 240.015" stroke="white" stroke-width="0.805419"/>
<path d="M60.1167 22.6773V21.4369H66.6003V22.6773H64.0068V29.33H62.7101V22.6773H60.1167ZM67.0482 29.33V21.4369H72.7425V22.6773H68.345V24.7069H71.8969V25.9473H68.345V28.0897H72.7425V29.33H67.0482ZM72.8593 29.33L74.9453 25.4398L72.972 21.4369H74.3815L76.0165 24.8197H76.5239L78.1589 21.4369H79.5684L77.5951 25.4398L79.6812 29.33H78.2717L76.5239 26.0036H76.0165L74.2688 29.33H72.8593ZM79.5094 22.6773V21.4369H85.993V22.6773H83.3996V29.33H82.1028V22.6773H79.5094Z" fill="#F6C33F"/>
<path d="M61.1315 52.6601V41.3842H63.7894L68.7024 50.3244H68.8635L68.7024 48.9552V41.3842H70.5549V52.6601H67.897L62.984 43.7199H62.8229L62.984 45.0892V52.6601H61.1315ZM72.6105 51.6453C71.8802 50.8506 71.5151 49.8197 71.5151 48.5525C71.5151 47.2853 71.8802 46.2597 72.6105 45.4758C73.3515 44.6811 74.275 44.2837 75.3811 44.2837C76.0791 44.2837 76.7181 44.4878 77.298 44.8959C77.545 45.0677 77.7652 45.2664 77.9585 45.4919H78.039V44.4448H79.7304V52.6601H78.039V51.5325H77.9585C77.7974 51.758 77.5772 51.9728 77.298 52.1768C76.7181 52.6064 76.0791 52.8212 75.3811 52.8212C74.275 52.8212 73.3515 52.4292 72.6105 51.6453ZM73.9314 46.5228C73.5018 46.9953 73.287 47.6719 73.287 48.5525C73.287 49.4331 73.5018 50.1096 73.9314 50.5821C74.3609 51.0546 74.9516 51.2909 75.7033 51.2909C76.412 51.2909 76.9758 51.0546 77.3947 50.5821C77.8242 50.0989 78.039 49.4223 78.039 48.5525C78.039 47.6826 77.8242 47.0114 77.3947 46.5389C76.9758 46.0557 76.412 45.814 75.7033 45.814C74.9516 45.814 74.3609 46.0503 73.9314 46.5228ZM81.0128 52.6601V44.4448H82.7041V45.5724H82.7847C82.9243 45.3362 83.1068 45.1214 83.3324 44.9281C83.8478 44.4985 84.4707 44.2837 85.2009 44.2837C86.0708 44.2837 86.7742 44.5415 87.3111 45.0569C87.5366 45.2717 87.7192 45.5241 87.8588 45.814H87.9394C88.0897 45.5348 88.2991 45.2825 88.5676 45.0569C89.1475 44.5415 89.8777 44.2837 90.7583 44.2837C91.7141 44.2837 92.4604 44.5844 92.9974 45.1858C93.5451 45.7764 93.8189 46.6302 93.8189 47.747V52.6601H92.1275V47.8276C92.1275 46.4852 91.5369 45.814 90.3556 45.814C89.7864 45.814 89.2925 46.0396 88.8736 46.4906C88.4656 46.9309 88.2615 47.4839 88.2615 48.1498V52.6601H86.5701V47.8276C86.5701 46.4852 85.9795 45.814 84.7982 45.814C84.2291 45.814 83.7351 46.0396 83.3162 46.4906C82.9082 46.9309 82.7041 47.4839 82.7041 48.1498V52.6601H81.0128ZM95.7544 51.5969C94.949 50.77 94.5463 49.7552 94.5463 48.5525C94.5463 47.3497 94.949 46.3402 95.7544 45.5241C96.5706 44.6972 97.5639 44.2837 98.7345 44.2837C99.905 44.2837 100.893 44.6972 101.698 45.5241C102.515 46.3402 102.923 47.3497 102.923 48.5525V49.1163H96.2377C96.3666 49.7928 96.6619 50.3244 97.1236 50.711C97.5854 51.0976 98.1224 51.2909 98.7345 51.2909C99.4862 51.2909 100.088 51.103 100.539 50.7271C100.743 50.5767 100.92 50.3888 101.07 50.1633H102.842C102.617 50.6895 102.332 51.1352 101.988 51.5003C101.108 52.3809 100.023 52.8212 98.7345 52.8212C97.5639 52.8212 96.5706 52.4131 95.7544 51.5969ZM96.3182 47.747H101.151C101.054 47.2101 100.796 46.7537 100.378 46.3778C99.9695 46.002 99.4218 45.814 98.7345 45.814C98.1546 45.814 97.6391 45.9912 97.1881 46.3456C96.737 46.6893 96.4471 47.1564 96.3182 47.747ZM108.341 51.5969C107.525 50.77 107.117 49.7552 107.117 48.5525C107.117 47.3497 107.525 46.3402 108.341 45.5241C109.168 44.6972 110.182 44.2837 111.385 44.2837C112.588 44.2837 113.597 44.6972 114.414 45.5241C115.24 46.3402 115.654 47.3497 115.654 48.5525C115.654 49.7552 115.24 50.77 114.414 51.5969C113.597 52.4131 112.588 52.8212 111.385 52.8212C110.182 52.8212 109.168 52.4131 108.341 51.5969ZM109.581 46.5711C109.119 47.0651 108.888 47.7256 108.888 48.5525C108.888 49.3794 109.119 50.0452 109.581 50.5499C110.043 51.0439 110.644 51.2909 111.385 51.2909C112.126 51.2909 112.728 51.0439 113.189 50.5499C113.651 50.0452 113.882 49.3794 113.882 48.5525C113.882 47.7256 113.651 47.0651 113.189 46.5711C112.728 46.0664 112.126 45.814 111.385 45.814C110.644 45.814 110.043 46.0664 109.581 46.5711ZM115.813 45.9751V44.4448H116.779V41.3842H120.887V42.9145H118.47V44.4448H120.403V45.9751H118.47V52.6601H116.779V45.9751H115.813ZM124.277 45.9751V44.4448H125.243V42.6729H126.935V44.4448H129.432V45.9751H126.935V51.1298H129.512V52.6601H125.243V45.9751H124.277ZM130.318 52.6601V41.3842H132.009V45.5724H132.09C132.218 45.3576 132.417 45.1429 132.686 44.9281C133.265 44.4985 133.926 44.2837 134.667 44.2837C135.687 44.2837 136.476 44.5791 137.035 45.1697C137.604 45.7603 137.889 46.6195 137.889 47.747V52.6601H136.197V47.9081C136.197 47.1886 136.036 46.6624 135.714 46.3295C135.402 45.9859 134.919 45.814 134.264 45.814C133.609 45.814 133.067 46.0396 132.637 46.4906C132.218 46.9309 132.009 47.5108 132.009 48.2303V52.6601H130.318ZM139.821 51.5969C139.015 50.77 138.613 49.7552 138.613 48.5525C138.613 47.3497 139.015 46.3402 139.821 45.5241C140.637 44.6972 141.63 44.2837 142.801 44.2837C143.972 44.2837 144.959 44.6972 145.765 45.5241C146.581 46.3402 146.989 47.3497 146.989 48.5525V49.1163H140.304C140.433 49.7928 140.728 50.3244 141.19 50.711C141.652 51.0976 142.189 51.2909 142.801 51.2909C143.553 51.2909 144.154 51.103 144.605 50.7271C144.809 50.5767 144.986 50.3888 145.137 50.1633H146.909C146.683 50.6895 146.398 51.1352 146.055 51.5003C145.174 52.3809 144.09 52.8212 142.801 52.8212C141.63 52.8212 140.637 52.4131 139.821 51.5969ZM140.385 47.747H145.217C145.121 47.2101 144.863 46.7537 144.444 46.3778C144.036 46.002 143.488 45.814 142.801 45.814C142.221 45.814 141.706 45.9912 141.255 46.3456C140.804 46.6893 140.514 47.1564 140.385 47.747ZM151.827 52.6601V41.3842H157.385C158.448 41.3842 159.291 41.6634 159.914 42.2219C160.537 42.7696 160.848 43.4568 160.848 44.2837C160.848 45.1106 160.563 45.7442 159.994 46.1845C159.758 46.3671 159.479 46.5121 159.157 46.6195V46.7C159.554 46.7859 159.903 46.9309 160.204 47.1349C160.902 47.6397 161.251 48.4075 161.251 49.4384C161.251 50.3942 160.907 51.1728 160.22 51.7741C159.532 52.3648 158.561 52.6601 157.304 52.6601H151.827ZM153.68 45.9751H157.304C157.82 45.9751 158.217 45.8463 158.496 45.5885C158.775 45.3308 158.915 44.971 158.915 44.5093C158.915 44.1012 158.775 43.7736 158.496 43.5266C158.217 43.2797 157.82 43.1562 157.304 43.1562H153.68V45.9751ZM153.68 50.8882H157.224C158.62 50.8882 159.318 50.3512 159.318 49.2773C159.318 48.2034 158.62 47.6665 157.224 47.6665H153.68V50.8882ZM163.121 51.5969C162.304 50.77 161.896 49.7552 161.896 48.5525C161.896 47.3497 162.304 46.3402 163.121 45.5241C163.947 44.6972 164.962 44.2837 166.165 44.2837C167.368 44.2837 168.377 44.6972 169.193 45.5241C170.02 46.3402 170.434 47.3497 170.434 48.5525C170.434 49.7552 170.02 50.77 169.193 51.5969C168.377 52.4131 167.368 52.8212 166.165 52.8212C164.962 52.8212 163.947 52.4131 163.121 51.5969ZM164.361 46.5711C163.899 47.0651 163.668 47.7256 163.668 48.5525C163.668 49.3794 163.899 50.0452 164.361 50.5499C164.823 51.0439 165.424 51.2909 166.165 51.2909C166.906 51.2909 167.507 51.0439 167.969 50.5499C168.431 50.0452 168.662 49.3794 168.662 48.5525C168.662 47.7256 168.431 47.0651 167.969 46.5711C167.507 46.0664 166.906 45.814 166.165 45.814C165.424 45.814 164.823 46.0664 164.361 46.5711ZM170.036 52.6601L172.533 48.5525L170.117 44.4448H172.05L173.902 47.747H174.305L176.157 44.4448H178.09L175.674 48.5525L178.171 52.6601H176.238L174.305 49.2773H173.902L171.969 52.6601H170.036Z" fill="white"/>
<path d="M151.918 178.527V169.506H154.044L157.974 176.659H158.103L157.974 175.563V169.506H159.456V178.527H157.33L153.4 171.375H153.271L153.4 172.47V178.527H151.918ZM161.101 177.715C160.517 177.079 160.225 176.255 160.225 175.241C160.225 174.227 160.517 173.407 161.101 172.78C161.694 172.144 162.433 171.826 163.317 171.826C163.876 171.826 164.387 171.989 164.851 172.316C165.049 172.453 165.225 172.612 165.379 172.793H165.444V171.955H166.797V178.527H165.444V177.625H165.379C165.25 177.805 165.074 177.977 164.851 178.14C164.387 178.484 163.876 178.656 163.317 178.656C162.433 178.656 161.694 178.342 161.101 177.715ZM162.158 173.617C161.814 173.995 161.642 174.537 161.642 175.241C161.642 175.945 161.814 176.487 162.158 176.865C162.501 177.243 162.974 177.432 163.575 177.432C164.142 177.432 164.593 177.243 164.928 176.865C165.272 176.478 165.444 175.937 165.444 175.241C165.444 174.545 165.272 174.008 164.928 173.63C164.593 173.244 164.142 173.05 163.575 173.05C162.974 173.05 162.501 173.239 162.158 173.617ZM167.823 178.527V171.955H169.176V172.857H169.24C169.352 172.668 169.498 172.496 169.678 172.341C170.091 171.998 170.589 171.826 171.173 171.826C171.869 171.826 172.432 172.032 172.861 172.445C173.042 172.616 173.188 172.818 173.3 173.05H173.364C173.484 172.827 173.652 172.625 173.867 172.445C174.33 172.032 174.915 171.826 175.619 171.826C176.384 171.826 176.981 172.067 177.41 172.548C177.849 173.02 178.068 173.703 178.068 174.597V178.527H176.715V174.661C176.715 173.587 176.242 173.05 175.297 173.05C174.842 173.05 174.446 173.231 174.111 173.591C173.785 173.944 173.622 174.386 173.622 174.919V178.527H172.269V174.661C172.269 173.587 171.796 173.05 170.851 173.05C170.396 173.05 170.001 173.231 169.665 173.591C169.339 173.944 169.176 174.386 169.176 174.919V178.527H167.823ZM179.616 177.677C178.972 177.015 178.65 176.203 178.65 175.241C178.65 174.279 178.972 173.471 179.616 172.818C180.269 172.157 181.064 171.826 182 171.826C182.937 171.826 183.727 172.157 184.371 172.818C185.024 173.471 185.351 174.279 185.351 175.241V175.692H180.003C180.106 176.233 180.342 176.659 180.711 176.968C181.081 177.277 181.51 177.432 182 177.432C182.601 177.432 183.083 177.281 183.443 176.981C183.607 176.86 183.748 176.71 183.869 176.53H185.286C185.106 176.951 184.878 177.307 184.603 177.599C183.899 178.304 183.031 178.656 182 178.656C181.064 178.656 180.269 178.33 179.616 177.677ZM180.067 174.597H183.933C183.856 174.167 183.65 173.802 183.315 173.501C182.988 173.201 182.55 173.05 182 173.05C181.536 173.05 181.124 173.192 180.763 173.476C180.402 173.75 180.17 174.124 180.067 174.597ZM189.685 177.677C189.032 177.015 188.706 176.203 188.706 175.241C188.706 174.279 189.032 173.471 189.685 172.818C190.347 172.157 191.158 171.826 192.121 171.826C193.083 171.826 193.89 172.157 194.543 172.818C195.205 173.471 195.536 174.279 195.536 175.241C195.536 176.203 195.205 177.015 194.543 177.677C193.89 178.33 193.083 178.656 192.121 178.656C191.158 178.656 190.347 178.33 189.685 177.677ZM190.677 173.656C190.308 174.051 190.123 174.579 190.123 175.241C190.123 175.903 190.308 176.435 190.677 176.839C191.047 177.234 191.528 177.432 192.121 177.432C192.713 177.432 193.195 177.234 193.564 176.839C193.933 176.435 194.118 175.903 194.118 175.241C194.118 174.579 193.933 174.051 193.564 173.656C193.195 173.252 192.713 173.05 192.121 173.05C191.528 173.05 191.047 173.252 190.677 173.656ZM195.663 173.179V171.955H196.436V169.506H199.722V170.731H197.789V171.955H199.335V173.179H197.789V178.527H196.436V173.179H195.663ZM202.434 173.179V171.955H203.207V170.537H204.56V171.955H206.558V173.179H204.56V177.303H206.622V178.527H203.207V173.179H202.434ZM207.267 178.527V169.506H208.62V172.857H208.684C208.787 172.685 208.946 172.513 209.161 172.341C209.625 171.998 210.153 171.826 210.746 171.826C211.562 171.826 212.194 172.062 212.64 172.535C213.096 173.007 213.323 173.695 213.323 174.597V178.527H211.97V174.726C211.97 174.15 211.841 173.729 211.584 173.463C211.334 173.188 210.948 173.05 210.424 173.05C209.9 173.05 209.466 173.231 209.122 173.591C208.787 173.944 208.62 174.408 208.62 174.983V178.527H207.267ZM214.869 177.677C214.225 177.015 213.903 176.203 213.903 175.241C213.903 174.279 214.225 173.471 214.869 172.818C215.522 172.157 216.317 171.826 217.253 171.826C218.19 171.826 218.98 172.157 219.624 172.818C220.277 173.471 220.604 174.279 220.604 175.241V175.692H215.256C215.359 176.233 215.595 176.659 215.965 176.968C216.334 177.277 216.764 177.432 217.253 177.432C217.855 177.432 218.336 177.281 218.697 176.981C218.86 176.86 219.002 176.71 219.122 176.53H220.539C220.359 176.951 220.131 177.307 219.856 177.599C219.152 178.304 218.284 178.656 217.253 178.656C216.317 178.656 215.522 178.33 214.869 177.677ZM215.32 174.597H219.186C219.109 174.167 218.903 173.802 218.568 173.501C218.241 173.201 217.803 173.05 217.253 173.05C216.789 173.05 216.377 173.192 216.016 173.476C215.655 173.75 215.423 174.124 215.32 174.597ZM224.474 178.527V169.506H228.92C229.771 169.506 230.445 169.73 230.943 170.177C231.442 170.615 231.691 171.164 231.691 171.826C231.691 172.488 231.463 172.994 231.008 173.347C230.819 173.493 230.596 173.609 230.338 173.695V173.759C230.656 173.828 230.935 173.944 231.175 174.107C231.734 174.511 232.013 175.125 232.013 175.95C232.013 176.714 231.738 177.337 231.188 177.818C230.638 178.291 229.861 178.527 228.856 178.527H224.474ZM225.956 173.179H228.856C229.268 173.179 229.586 173.076 229.809 172.87C230.033 172.664 230.144 172.376 230.144 172.006C230.144 171.68 230.033 171.418 229.809 171.22C229.586 171.023 229.268 170.924 228.856 170.924H225.956V173.179ZM225.956 177.11H228.791C229.908 177.11 230.467 176.68 230.467 175.821C230.467 174.962 229.908 174.532 228.791 174.532H225.956V177.11ZM233.509 177.677C232.856 177.015 232.53 176.203 232.53 175.241C232.53 174.279 232.856 173.471 233.509 172.818C234.17 172.157 234.982 171.826 235.945 171.826C236.907 171.826 237.714 172.157 238.367 172.818C239.029 173.471 239.359 174.279 239.359 175.241C239.359 176.203 239.029 177.015 238.367 177.677C237.714 178.33 236.907 178.656 235.945 178.656C234.982 178.656 234.17 178.33 233.509 177.677ZM234.501 173.656C234.132 174.051 233.947 174.579 233.947 175.241C233.947 175.903 234.132 176.435 234.501 176.839C234.871 177.234 235.352 177.432 235.945 177.432C236.537 177.432 237.018 177.234 237.388 176.839C237.757 176.435 237.942 175.903 237.942 175.241C237.942 174.579 237.757 174.051 237.388 173.656C237.018 173.252 236.537 173.05 235.945 173.05C235.352 173.05 234.871 173.252 234.501 173.656ZM239.041 178.527L241.039 175.241L239.106 171.955H240.652L242.134 174.597H242.456L243.938 171.955H245.485L243.552 175.241L245.549 178.527H244.003L242.456 175.821H242.134L240.588 178.527H239.041Z" fill="white"/>
<path d="M151.918 243.766V234.745H154.044L157.974 241.897H158.103L157.974 240.802V234.745H159.456V243.766H157.33L153.4 236.614H153.271L153.4 237.709V243.766H151.918ZM161.101 242.954C160.517 242.318 160.225 241.494 160.225 240.48C160.225 239.466 160.517 238.646 161.101 238.019C161.694 237.383 162.433 237.065 163.317 237.065C163.876 237.065 164.387 237.228 164.851 237.555C165.049 237.692 165.225 237.851 165.379 238.031H165.444V237.194H166.797V243.766H165.444V242.864H165.379C165.25 243.044 165.074 243.216 164.851 243.379C164.387 243.723 163.876 243.895 163.317 243.895C162.433 243.895 161.694 243.581 161.101 242.954ZM162.158 238.856C161.814 239.234 161.642 239.775 161.642 240.48C161.642 241.184 161.814 241.726 162.158 242.104C162.501 242.482 162.974 242.671 163.575 242.671C164.142 242.671 164.593 242.482 164.928 242.104C165.272 241.717 165.444 241.176 165.444 240.48C165.444 239.784 165.272 239.247 164.928 238.869C164.593 238.482 164.142 238.289 163.575 238.289C162.974 238.289 162.501 238.478 162.158 238.856ZM167.823 243.766V237.194H169.176V238.096H169.24C169.352 237.907 169.498 237.735 169.678 237.58C170.091 237.237 170.589 237.065 171.173 237.065C171.869 237.065 172.432 237.271 172.861 237.683C173.042 237.855 173.188 238.057 173.3 238.289H173.364C173.484 238.066 173.652 237.864 173.867 237.683C174.33 237.271 174.915 237.065 175.619 237.065C176.384 237.065 176.981 237.305 177.41 237.787C177.849 238.259 178.068 238.942 178.068 239.836V243.766H176.715V239.9C176.715 238.826 176.242 238.289 175.297 238.289C174.842 238.289 174.446 238.47 174.111 238.83C173.785 239.183 173.622 239.625 173.622 240.158V243.766H172.269V239.9C172.269 238.826 171.796 238.289 170.851 238.289C170.396 238.289 170.001 238.47 169.665 238.83C169.339 239.183 169.176 239.625 169.176 240.158V243.766H167.823ZM179.616 242.915C178.972 242.254 178.65 241.442 178.65 240.48C178.65 239.518 178.972 238.71 179.616 238.057C180.269 237.396 181.064 237.065 182 237.065C182.937 237.065 183.727 237.396 184.371 238.057C185.024 238.71 185.351 239.518 185.351 240.48V240.931H180.003C180.106 241.472 180.342 241.897 180.711 242.207C181.081 242.516 181.51 242.671 182 242.671C182.601 242.671 183.083 242.52 183.443 242.22C183.607 242.099 183.748 241.949 183.869 241.769H185.286C185.106 242.19 184.878 242.546 184.603 242.838C183.899 243.543 183.031 243.895 182 243.895C181.064 243.895 180.269 243.568 179.616 242.915ZM180.067 239.836H183.933C183.856 239.406 183.65 239.041 183.315 238.74C182.988 238.439 182.55 238.289 182 238.289C181.536 238.289 181.124 238.431 180.763 238.714C180.402 238.989 180.17 239.363 180.067 239.836ZM189.685 242.915C189.032 242.254 188.706 241.442 188.706 240.48C188.706 239.518 189.032 238.71 189.685 238.057C190.347 237.396 191.158 237.065 192.121 237.065C193.083 237.065 193.89 237.396 194.543 238.057C195.205 238.71 195.536 239.518 195.536 240.48C195.536 241.442 195.205 242.254 194.543 242.915C193.89 243.568 193.083 243.895 192.121 243.895C191.158 243.895 190.347 243.568 189.685 242.915ZM190.677 238.895C190.308 239.29 190.123 239.818 190.123 240.48C190.123 241.141 190.308 241.674 190.677 242.078C191.047 242.473 191.528 242.671 192.121 242.671C192.713 242.671 193.195 242.473 193.564 242.078C193.933 241.674 194.118 241.141 194.118 240.48C194.118 239.818 193.933 239.29 193.564 238.895C193.195 238.491 192.713 238.289 192.121 238.289C191.528 238.289 191.047 238.491 190.677 238.895ZM195.663 238.418V237.194H196.436V234.745H199.722V235.97H197.789V237.194H199.335V238.418H197.789V243.766H196.436V238.418H195.663ZM202.434 238.418V237.194H203.207V235.776H204.56V237.194H206.558V238.418H204.56V242.542H206.622V243.766H203.207V238.418H202.434ZM207.267 243.766V234.745H208.62V238.096H208.684C208.787 237.924 208.946 237.752 209.161 237.58C209.625 237.237 210.153 237.065 210.746 237.065C211.562 237.065 212.194 237.301 212.64 237.774C213.096 238.246 213.323 238.933 213.323 239.836V243.766H211.97V239.964C211.97 239.389 211.841 238.968 211.584 238.702C211.334 238.427 210.948 238.289 210.424 238.289C209.9 238.289 209.466 238.47 209.122 238.83C208.787 239.183 208.62 239.647 208.62 240.222V243.766H207.267ZM214.869 242.915C214.225 242.254 213.903 241.442 213.903 240.48C213.903 239.518 214.225 238.71 214.869 238.057C215.522 237.396 216.317 237.065 217.253 237.065C218.19 237.065 218.98 237.396 219.624 238.057C220.277 238.71 220.604 239.518 220.604 240.48V240.931H215.256C215.359 241.472 215.595 241.897 215.965 242.207C216.334 242.516 216.764 242.671 217.253 242.671C217.855 242.671 218.336 242.52 218.697 242.22C218.86 242.099 219.002 241.949 219.122 241.769H220.539C220.359 242.19 220.131 242.546 219.856 242.838C219.152 243.543 218.284 243.895 217.253 243.895C216.317 243.895 215.522 243.568 214.869 242.915ZM215.32 239.836H219.186C219.109 239.406 218.903 239.041 218.568 238.74C218.241 238.439 217.803 238.289 217.253 238.289C216.789 238.289 216.377 238.431 216.016 238.714C215.655 238.989 215.423 239.363 215.32 239.836ZM224.474 243.766V234.745H228.92C229.771 234.745 230.445 234.969 230.943 235.415C231.442 235.854 231.691 236.403 231.691 237.065C231.691 237.726 231.463 238.233 231.008 238.586C230.819 238.732 230.596 238.848 230.338 238.933V238.998C230.656 239.067 230.935 239.183 231.175 239.346C231.734 239.75 232.013 240.364 232.013 241.189C232.013 241.953 231.738 242.576 231.188 243.057C230.638 243.53 229.861 243.766 228.856 243.766H224.474ZM225.956 238.418H228.856C229.268 238.418 229.586 238.315 229.809 238.109C230.033 237.903 230.144 237.615 230.144 237.245C230.144 236.919 230.033 236.657 229.809 236.459C229.586 236.262 229.268 236.163 228.856 236.163H225.956V238.418ZM225.956 242.348H228.791C229.908 242.348 230.467 241.919 230.467 241.06C230.467 240.201 229.908 239.771 228.791 239.771H225.956V242.348ZM233.509 242.915C232.856 242.254 232.53 241.442 232.53 240.48C232.53 239.518 232.856 238.71 233.509 238.057C234.17 237.396 234.982 237.065 235.945 237.065C236.907 237.065 237.714 237.396 238.367 238.057C239.029 238.71 239.359 239.518 239.359 240.48C239.359 241.442 239.029 242.254 238.367 242.915C237.714 243.568 236.907 243.895 235.945 243.895C234.982 243.895 234.17 243.568 233.509 242.915ZM234.501 238.895C234.132 239.29 233.947 239.818 233.947 240.48C233.947 241.141 234.132 241.674 234.501 242.078C234.871 242.473 235.352 242.671 235.945 242.671C236.537 242.671 237.018 242.473 237.388 242.078C237.757 241.674 237.942 241.141 237.942 240.48C237.942 239.818 237.757 239.29 237.388 238.895C237.018 238.491 236.537 238.289 235.945 238.289C235.352 238.289 234.871 238.491 234.501 238.895ZM239.041 243.766L241.039 240.48L239.106 237.194H240.652L242.134 239.836H242.456L243.938 237.194H245.485L243.552 240.48L245.549 243.766H244.003L242.456 241.06H242.134L240.588 243.766H239.041Z" fill="white"/>
<path d="M60.2939 101.429V100.365L62.6038 98.732C63.1064 98.3712 63.4672 98.0362 63.6863 97.7269C63.9054 97.4176 64.0149 97.089 64.0149 96.7411C64.0149 96.3738 63.9021 96.0806 63.6766 95.8615C63.4511 95.6425 63.145 95.5329 62.7584 95.5329C62.2816 95.5329 61.924 95.7262 61.6856 96.1128C61.5825 96.2804 61.5052 96.4737 61.4537 96.6927H60.2939C60.3518 96.2804 60.4775 95.9099 60.6708 95.5812C61.1283 94.8403 61.8242 94.4698 62.7584 94.4698C63.4737 94.4698 64.0536 94.6824 64.4981 95.1077C64.9492 95.5265 65.1747 96.0548 65.1747 96.6927C65.1747 97.2469 65.0329 97.7462 64.7494 98.1908C64.4659 98.629 64.0117 99.0639 63.3867 99.4956L62.4202 100.172L61.9852 100.365V100.414L62.5651 100.365H65.1747V101.429H60.2939ZM66.5297 100.617C65.9176 99.9466 65.6115 99.0897 65.6115 98.0458C65.6115 97.002 65.9176 96.145 66.5297 95.4749C67.1418 94.8048 67.8828 94.4698 68.7526 94.4698C69.6225 94.4698 70.3635 94.8048 70.9756 95.4749C71.5877 96.145 71.8938 97.002 71.8938 98.0458C71.8938 99.0897 71.5877 99.9466 70.9756 100.617C70.3635 101.287 69.6225 101.622 68.7526 101.622C67.8828 101.622 67.1418 101.287 66.5297 100.617ZM67.3222 96.1901C66.9549 96.6283 66.7713 97.2469 66.7713 98.0458C66.7713 98.8448 66.9549 99.4634 67.3222 99.9015C67.6959 100.34 68.1727 100.559 68.7526 100.559C69.3325 100.559 69.8061 100.34 70.1734 99.9015C70.5471 99.4634 70.734 98.8448 70.734 98.0458C70.734 97.2469 70.5471 96.6283 70.1734 96.1901C69.8061 95.752 69.3325 95.5329 68.7526 95.5329C68.1727 95.5329 67.6959 95.752 67.3222 96.1901ZM74.4599 96.4994H75.5231L76.3446 100.51H76.4896L77.3111 96.4994H78.7609L79.5824 100.51H79.7274L80.5489 96.4994H81.612L80.5489 101.429H78.8092L78.0843 97.6592H77.9876L77.2628 101.429H75.5231L74.4599 96.4994ZM82.4459 100.791C81.9562 100.295 81.7113 99.6857 81.7113 98.964C81.7113 98.2424 81.9562 97.6367 82.4459 97.147C82.942 96.6508 83.5509 96.4028 84.2726 96.4028C84.9942 96.4028 85.5999 96.6508 86.0896 97.147C86.5857 97.6367 86.8338 98.2424 86.8338 98.964C86.8338 99.6857 86.5857 100.295 86.0896 100.791C85.5999 101.28 84.9942 101.525 84.2726 101.525C83.5509 101.525 82.942 101.28 82.4459 100.791ZM83.1901 97.7752C82.913 98.0716 82.7745 98.4679 82.7745 98.964C82.7745 99.4601 82.913 99.8596 83.1901 100.162C83.4671 100.459 83.828 100.607 84.2726 100.607C84.7171 100.607 85.078 100.459 85.355 100.162C85.6321 99.8596 85.7706 99.4601 85.7706 98.964C85.7706 98.4679 85.6321 98.0716 85.355 97.7752C85.078 97.4724 84.7171 97.321 84.2726 97.321C83.828 97.321 83.4671 97.4724 83.1901 97.7752ZM87.3155 101.429V96.4994H88.3304V97.2243H88.3787C88.4496 97.089 88.5527 96.9601 88.688 96.8377C88.9844 96.58 89.3323 96.4511 89.7318 96.4511H90.3117V97.4176H89.6835C89.2904 97.4176 88.965 97.5432 88.7073 97.7945C88.456 98.0394 88.3304 98.3648 88.3304 98.7707V101.429H87.3155ZM91.0622 100.82C90.624 100.343 90.4049 99.7243 90.4049 98.964C90.4049 98.2037 90.624 97.5884 91.0622 97.118C91.5068 96.6412 92.0609 96.4028 92.7245 96.4028C93.1434 96.4028 93.5267 96.5252 93.8747 96.77C94.0229 96.8731 94.155 96.9923 94.2709 97.1277H94.3193V94.6631H95.3341V101.429H94.3193V100.8H94.2709C94.1614 100.936 94.0293 101.058 93.8747 101.168C93.5332 101.406 93.1498 101.525 92.7245 101.525C92.0609 101.525 91.5068 101.29 91.0622 100.82ZM91.8547 97.7462C91.597 98.0297 91.4681 98.4357 91.4681 98.964C91.4681 99.4924 91.597 99.8983 91.8547 100.182C92.1124 100.465 92.4668 100.607 92.9178 100.607C93.3431 100.607 93.6814 100.465 93.9327 100.182C94.1904 99.8918 94.3193 99.4859 94.3193 98.964C94.3193 98.4421 94.1904 98.0394 93.9327 97.7559C93.6814 97.4659 93.3431 97.321 92.9178 97.321C92.4668 97.321 92.1124 97.4627 91.8547 97.7462ZM95.7653 99.8822H96.8767C96.9218 100.011 97.0024 100.133 97.1184 100.249C97.3568 100.488 97.6789 100.607 98.0849 100.607C98.4392 100.607 98.697 100.552 98.8581 100.443C99.0191 100.333 99.0997 100.195 99.0997 100.027C99.0997 99.9692 99.0868 99.9176 99.061 99.8725C99.0353 99.821 98.9902 99.7759 98.9257 99.7372C98.8613 99.6985 98.8001 99.6663 98.7421 99.6406C98.6841 99.6083 98.5971 99.5793 98.4811 99.5536C98.3651 99.5214 98.2717 99.4988 98.2008 99.4859C98.13 99.4666 98.0204 99.4408 97.8722 99.4086C97.7305 99.3764 97.6242 99.3538 97.5533 99.3409C96.5223 99.109 96.0069 98.6128 96.0069 97.8525C96.0069 97.4659 96.1841 97.1277 96.5385 96.8377C96.8928 96.5478 97.36 96.4028 97.9399 96.4028C98.7453 96.4028 99.3478 96.6605 99.7472 97.176C99.9277 97.4015 100.05 97.6592 100.115 97.9492H99.0514C98.9998 97.8203 98.9289 97.7172 98.8387 97.6399C98.6132 97.4273 98.3136 97.321 97.9399 97.321C97.6499 97.321 97.4309 97.3725 97.2827 97.4756C97.1409 97.5787 97.07 97.7076 97.07 97.8622C97.07 97.9202 97.0829 97.975 97.1087 98.0265C97.1345 98.0716 97.1796 98.1135 97.244 98.1521C97.3084 98.1908 97.3696 98.223 97.4276 98.2488C97.4921 98.2746 97.5791 98.3036 97.6886 98.3358C97.7981 98.3616 97.8916 98.3841 97.9689 98.4034C98.0462 98.4163 98.1525 98.4389 98.2878 98.4711C98.4296 98.4969 98.5391 98.5194 98.6164 98.5387C99.6474 98.7707 100.163 99.2668 100.163 100.027C100.163 100.44 99.976 100.794 99.6023 101.09C99.235 101.38 98.7292 101.525 98.0849 101.525C97.2472 101.525 96.6061 101.251 96.1615 100.704C95.9618 100.452 95.8297 100.179 95.7653 99.8822ZM100.451 100.897C100.451 100.704 100.512 100.543 100.634 100.414C100.763 100.285 100.921 100.22 101.108 100.22C101.32 100.22 101.488 100.298 101.61 100.452C101.739 100.607 101.804 100.836 101.804 101.139C101.804 101.635 101.684 102.015 101.446 102.279C101.214 102.55 100.898 102.685 100.499 102.685V102.202C100.692 102.202 100.844 102.147 100.953 102.037C101.069 101.934 101.127 101.796 101.127 101.622V101.564C101.121 101.557 101.117 101.545 101.117 101.525V101.496L101.059 101.516C101.04 101.522 100.998 101.525 100.934 101.525C100.805 101.525 100.692 101.467 100.595 101.351C100.499 101.235 100.451 101.084 100.451 100.897ZM104.413 101.429V100.365L106.723 98.732C107.226 98.3712 107.587 98.0362 107.806 97.7269C108.025 97.4176 108.134 97.089 108.134 96.7411C108.134 96.3738 108.021 96.0806 107.796 95.8615C107.57 95.6425 107.264 95.5329 106.878 95.5329C106.401 95.5329 106.043 95.7262 105.805 96.1128C105.702 96.2804 105.625 96.4737 105.573 96.6927H104.413C104.471 96.2804 104.597 95.9099 104.79 95.5812C105.248 94.8403 105.943 94.4698 106.878 94.4698C107.593 94.4698 108.173 94.6824 108.617 95.1077C109.069 95.5265 109.294 96.0548 109.294 96.6927C109.294 97.2469 109.152 97.7462 108.869 98.1908C108.585 98.629 108.131 99.0639 107.506 99.4956L106.539 100.172L106.105 100.365V100.414L106.684 100.365H109.294V101.429H104.413ZM111.86 99.8822H112.971C113.016 100.011 113.097 100.133 113.213 100.249C113.451 100.488 113.773 100.607 114.179 100.607C114.534 100.607 114.792 100.552 114.953 100.443C115.114 100.333 115.194 100.195 115.194 100.027C115.194 99.9692 115.181 99.9176 115.156 99.8725C115.13 99.821 115.085 99.7759 115.02 99.7372C114.956 99.6985 114.895 99.6663 114.837 99.6406C114.779 99.6083 114.692 99.5793 114.576 99.5536C114.46 99.5214 114.366 99.4988 114.295 99.4859C114.224 99.4666 114.115 99.4408 113.967 99.4086C113.825 99.3764 113.719 99.3538 113.648 99.3409C112.617 99.109 112.101 98.6128 112.101 97.8525C112.101 97.4659 112.279 97.1277 112.633 96.8377C112.987 96.5478 113.455 96.4028 114.034 96.4028C114.84 96.4028 115.442 96.6605 115.842 97.176C116.022 97.4015 116.145 97.6592 116.209 97.9492H115.146C115.094 97.8203 115.023 97.7172 114.933 97.6399C114.708 97.4273 114.408 97.321 114.034 97.321C113.744 97.321 113.525 97.3725 113.377 97.4756C113.235 97.5787 113.165 97.7076 113.165 97.8622C113.165 97.9202 113.177 97.975 113.203 98.0265C113.229 98.0716 113.274 98.1135 113.339 98.1521C113.403 98.1908 113.464 98.223 113.522 98.2488C113.587 98.2746 113.674 98.3036 113.783 98.3358C113.893 98.3616 113.986 98.3841 114.063 98.4034C114.141 98.4163 114.247 98.4389 114.382 98.4711C114.524 98.4969 114.634 98.5194 114.711 98.5387C115.742 98.7707 116.257 99.2668 116.257 100.027C116.257 100.44 116.071 100.794 115.697 101.09C115.33 101.38 114.824 101.525 114.179 101.525C113.342 101.525 112.701 101.251 112.256 100.704C112.056 100.452 111.924 100.179 111.86 99.8822ZM117.173 100.791C116.69 100.295 116.448 99.6857 116.448 98.964C116.448 98.2424 116.69 97.6367 117.173 97.147C117.663 96.6508 118.259 96.4028 118.961 96.4028C119.664 96.4028 120.256 96.6508 120.74 97.147C121.229 97.6367 121.474 98.2424 121.474 98.964V99.3023H117.463C117.541 99.7082 117.718 100.027 117.995 100.259C118.272 100.491 118.594 100.607 118.961 100.607C119.412 100.607 119.773 100.494 120.044 100.269C120.166 100.179 120.273 100.066 120.363 99.9305H121.426C121.291 100.246 121.12 100.514 120.914 100.733C120.385 101.261 119.735 101.525 118.961 101.525C118.259 101.525 117.663 101.28 117.173 100.791ZM117.512 98.4808H120.411C120.353 98.1586 120.198 97.8847 119.947 97.6592C119.702 97.4337 119.374 97.321 118.961 97.321C118.613 97.321 118.304 97.4273 118.033 97.6399C117.763 97.8461 117.589 98.1264 117.512 98.4808ZM121.958 101.429V96.4994H122.973V97.176H123.021C123.099 97.0471 123.218 96.9182 123.379 96.7894C123.727 96.5316 124.123 96.4028 124.568 96.4028C125.18 96.4028 125.653 96.58 125.989 96.9344C126.33 97.2887 126.501 97.8042 126.501 98.4808V101.429H125.486V98.5774C125.486 98.1457 125.389 97.83 125.196 97.6302C125.009 97.424 124.719 97.321 124.326 97.321C123.933 97.321 123.608 97.4563 123.35 97.7269C123.099 97.9911 122.973 98.339 122.973 98.7707V101.429H121.958ZM126.839 97.4176V96.4994H127.419V95.4363H128.433V96.4994H129.931V97.4176H128.433V100.51H129.98V101.429H127.419V97.4176H126.839ZM130.898 100.791C130.415 100.295 130.173 99.6857 130.173 98.964C130.173 98.2424 130.415 97.6367 130.898 97.147C131.388 96.6508 131.984 96.4028 132.686 96.4028C133.388 96.4028 133.981 96.6508 134.464 97.147C134.954 97.6367 135.199 98.2424 135.199 98.964V99.3023H131.188C131.265 99.7082 131.442 100.027 131.72 100.259C131.997 100.491 132.319 100.607 132.686 100.607C133.137 100.607 133.498 100.494 133.769 100.269C133.891 100.179 133.997 100.066 134.087 99.9305H135.151C135.015 100.246 134.845 100.514 134.638 100.733C134.11 101.261 133.459 101.525 132.686 101.525C131.984 101.525 131.388 101.28 130.898 100.791ZM131.236 98.4808H134.136C134.078 98.1586 133.923 97.8847 133.672 97.6592C133.427 97.4337 133.098 97.321 132.686 97.321C132.338 97.321 132.029 97.4273 131.758 97.6399C131.488 97.8461 131.314 98.1264 131.236 98.4808ZM135.683 101.429V96.4994H136.698V97.176H136.746C136.823 97.0471 136.943 96.9182 137.104 96.7894C137.452 96.5316 137.848 96.4028 138.292 96.4028C138.905 96.4028 139.378 96.58 139.713 96.9344C140.055 97.2887 140.225 97.8042 140.225 98.4808V101.429H139.211V98.5774C139.211 98.1457 139.114 97.83 138.921 97.6302C138.734 97.424 138.444 97.321 138.051 97.321C137.658 97.321 137.332 97.4563 137.075 97.7269C136.823 97.9911 136.698 98.339 136.698 98.7707V101.429H135.683ZM141.366 100.8C140.895 100.317 140.66 99.705 140.66 98.964C140.66 98.223 140.895 97.6109 141.366 97.1277C141.836 96.6444 142.422 96.4028 143.125 96.4028C143.911 96.4028 144.552 96.7024 145.048 97.3016C145.261 97.5787 145.409 97.8751 145.493 98.1908H144.429C144.384 98.0297 144.301 97.8847 144.178 97.7559C143.927 97.4659 143.576 97.321 143.125 97.321C142.725 97.321 142.39 97.4724 142.119 97.7752C141.855 98.078 141.723 98.4743 141.723 98.964C141.723 99.4537 141.855 99.85 142.119 100.153C142.39 100.456 142.725 100.607 143.125 100.607C143.589 100.607 143.953 100.462 144.217 100.172C144.333 100.043 144.42 99.8983 144.478 99.7372H145.493C145.409 100.066 145.261 100.365 145.048 100.636C144.558 101.229 143.917 101.525 143.125 101.525C142.422 101.525 141.836 101.284 141.366 100.8ZM146.359 100.791C145.876 100.295 145.635 99.6857 145.635 98.964C145.635 98.2424 145.876 97.6367 146.359 97.147C146.849 96.6508 147.445 96.4028 148.147 96.4028C148.85 96.4028 149.443 96.6508 149.926 97.147C150.415 97.6367 150.66 98.2424 150.66 98.964V99.3023H146.649C146.727 99.7082 146.904 100.027 147.181 100.259C147.458 100.491 147.78 100.607 148.147 100.607C148.598 100.607 148.959 100.494 149.23 100.269C149.352 100.179 149.459 100.066 149.549 99.9305H150.612C150.477 100.246 150.306 100.514 150.1 100.733C149.571 101.261 148.921 101.525 148.147 101.525C147.445 101.525 146.849 101.28 146.359 100.791ZM146.698 98.4808H149.597C149.539 98.1586 149.385 97.8847 149.133 97.6592C148.888 97.4337 148.56 97.321 148.147 97.321C147.799 97.321 147.49 97.4273 147.22 97.6399C146.949 97.8461 146.775 98.1264 146.698 98.4808ZM150.806 99.8822H151.918C151.963 100.011 152.043 100.133 152.159 100.249C152.398 100.488 152.72 100.607 153.126 100.607C153.48 100.607 153.738 100.552 153.899 100.443C154.06 100.333 154.14 100.195 154.14 100.027C154.14 99.9692 154.128 99.9176 154.102 99.8725C154.076 99.821 154.031 99.7759 153.967 99.7372C153.902 99.6985 153.841 99.6663 153.783 99.6406C153.725 99.6083 153.638 99.5793 153.522 99.5536C153.406 99.5214 153.313 99.4988 153.242 99.4859C153.171 99.4666 153.061 99.4408 152.913 99.4086C152.771 99.3764 152.665 99.3538 152.594 99.3409C151.563 99.109 151.048 98.6128 151.048 97.8525C151.048 97.4659 151.225 97.1277 151.579 96.8377C151.934 96.5478 152.401 96.4028 152.981 96.4028C153.786 96.4028 154.389 96.6605 154.788 97.176C154.968 97.4015 155.091 97.6592 155.155 97.9492H154.092C154.041 97.8203 153.97 97.7172 153.88 97.6399C153.654 97.4273 153.354 97.321 152.981 97.321C152.691 97.321 152.472 97.3725 152.323 97.4756C152.182 97.5787 152.111 97.7076 152.111 97.8622C152.111 97.9202 152.124 97.975 152.149 98.0265C152.175 98.0716 152.22 98.1135 152.285 98.1521C152.349 98.1908 152.41 98.223 152.468 98.2488C152.533 98.2746 152.62 98.3036 152.729 98.3358C152.839 98.3616 152.932 98.3841 153.01 98.4034C153.087 98.4163 153.193 98.4389 153.329 98.4711C153.47 98.4969 153.58 98.5194 153.657 98.5387C154.688 98.7707 155.204 99.2668 155.204 100.027C155.204 100.44 155.017 100.794 154.643 101.09C154.276 101.38 153.77 101.525 153.126 101.525C152.288 101.525 151.647 101.251 151.202 100.704C151.003 100.452 150.87 100.179 150.806 99.8822Z" fill="#5B627A"/>
<rect width="289.145" height="124.034" rx="9.66502" fill="url(#paint3_linear_313_363)"/>
<rect x="110.342" y="155.446" width="216.658" height="38.6601" rx="9.66502" fill="url(#paint4_linear_313_363)"/>
<rect x="110.342" y="220.685" width="216.658" height="38.6601" rx="9.66502" fill="url(#paint5_linear_313_363)"/>
<path d="M0 19.3301C0 10.2178 0 5.66164 2.83082 2.83082C5.66164 0 10.2178 0 19.33 0H40.2709V124.034H19.33C10.2178 124.034 5.66164 124.034 2.83082 121.204C0 118.373 0 113.817 0 104.704V19.3301Z" fill="#F6C33F"/>
<path d="M25.7742 56.7482L25.9157 59.7497H25.5571C25.4879 59.2211 25.3935 58.8436 25.2739 58.617C25.0789 58.2521 24.8177 57.9847 24.4905 57.8148C24.1696 57.6386 23.7449 57.5505 23.2163 57.5505H21.4136V67.3288C21.4136 68.1153 21.4985 68.6061 21.6684 68.8012C21.9075 69.0655 22.2756 69.1976 22.7727 69.1976H23.2163V69.5468H17.7892V69.1976H18.2422C18.7834 69.1976 19.1672 69.034 19.3937 68.7068C19.5322 68.5054 19.6014 68.0461 19.6014 67.3288V57.5505H18.0629C17.4651 57.5505 17.0404 57.5945 16.7887 57.6826C16.4615 57.8022 16.1815 58.0318 15.9487 58.3716C15.7159 58.7114 15.5774 59.1708 15.5334 59.7497H15.1747L15.3257 56.7482H25.7742Z" fill="white"/>
<rect x="50.7422" y="159.473" width="42.6872" height="25.7734" rx="12.8867" fill="white" fill-opacity="0.1"/>
<path d="M61.3277 173.717H62.6808C62.741 173.951 62.8424 174.15 62.9853 174.315C63.316 174.706 63.7971 174.901 64.4286 174.901C64.9322 174.901 65.3306 174.766 65.6238 174.496C65.917 174.225 66.0636 173.872 66.0636 173.436C66.0636 172.977 65.917 172.609 65.6238 172.331C65.3306 172.052 64.9322 171.913 64.4286 171.913C63.9625 171.913 63.5679 172.037 63.2446 172.285C63.1168 172.383 63.0041 172.503 62.9063 172.646H61.666L62.0043 168.023H66.7965V169.264H63.0755L62.9063 171.293H62.9627C63.083 171.173 63.2221 171.071 63.3799 170.989C63.7332 170.778 64.158 170.673 64.6541 170.673C65.4434 170.673 66.1012 170.936 66.6274 171.462C67.1536 171.989 67.4167 172.646 67.4167 173.436C67.4167 174.21 67.1385 174.856 66.5823 175.375C66.0335 175.886 65.3156 176.142 64.4286 176.142C63.2709 176.142 62.4102 175.74 61.8464 174.935C61.6059 174.582 61.433 174.176 61.3277 173.717ZM68.9416 174.969C68.2274 174.187 67.8704 173.188 67.8704 171.97C67.8704 170.752 68.2274 169.752 68.9416 168.97C69.6557 168.189 70.5202 167.798 71.535 167.798C72.5498 167.798 73.4143 168.189 74.1285 168.97C74.8426 169.752 75.1997 170.752 75.1997 171.97C75.1997 173.188 74.8426 174.187 74.1285 174.969C73.4143 175.751 72.5498 176.142 71.535 176.142C70.5202 176.142 69.6557 175.751 68.9416 174.969ZM69.8662 169.805C69.4377 170.316 69.2235 171.038 69.2235 171.97C69.2235 172.902 69.4377 173.624 69.8662 174.135C70.3022 174.646 70.8585 174.901 71.535 174.901C72.2116 174.901 72.7641 174.646 73.1926 174.135C73.6286 173.624 73.8466 172.902 73.8466 171.97C73.8466 171.038 73.6286 170.316 73.1926 169.805C72.7641 169.294 72.2116 169.038 71.535 169.038C70.8585 169.038 70.3022 169.294 69.8662 169.805ZM76.251 171.09C75.8901 170.722 75.7097 170.282 75.7097 169.771C75.7097 169.26 75.8901 168.824 76.251 168.463C76.6193 168.095 77.0591 167.91 77.5702 167.91C78.0814 167.91 78.5174 168.095 78.8782 168.463C79.2466 168.824 79.4308 169.26 79.4308 169.771C79.4308 170.282 79.2466 170.722 78.8782 171.09C78.5174 171.451 78.0814 171.631 77.5702 171.631C77.0591 171.631 76.6193 171.451 76.251 171.09ZM76.6682 175.916L81.404 168.023H82.5316L77.7958 175.916H76.6682ZM76.9275 169.083C76.7546 169.256 76.6682 169.485 76.6682 169.771C76.6682 170.057 76.7546 170.29 76.9275 170.47C77.1004 170.643 77.3147 170.729 77.5702 170.729C77.8258 170.729 78.0401 170.643 78.213 170.47C78.3859 170.29 78.4723 170.057 78.4723 169.771C78.4723 169.485 78.3859 169.256 78.213 169.083C78.0401 168.903 77.8258 168.812 77.5702 168.812C77.3147 168.812 77.1004 168.903 76.9275 169.083ZM80.3103 175.488C79.9494 175.119 79.769 174.68 79.769 174.169C79.769 173.657 79.9494 173.221 80.3103 172.861C80.6786 172.492 81.1184 172.308 81.6296 172.308C82.1407 172.308 82.5767 172.492 82.9376 172.861C83.3059 173.221 83.4901 173.657 83.4901 174.169C83.4901 174.68 83.3059 175.119 82.9376 175.488C82.5767 175.849 82.1407 176.029 81.6296 176.029C81.1184 176.029 80.6786 175.849 80.3103 175.488ZM80.9868 173.481C80.8139 173.654 80.7275 173.883 80.7275 174.169C80.7275 174.454 80.8139 174.687 80.9868 174.868C81.1597 175.041 81.374 175.127 81.6296 175.127C81.8851 175.127 82.0994 175.041 82.2723 174.868C82.4452 174.687 82.5316 174.454 82.5316 174.169C82.5316 173.883 82.4452 173.654 82.2723 173.481C82.0994 173.3 81.8851 173.21 81.6296 173.21C81.374 173.21 81.1597 173.3 80.9868 173.481Z" fill="white"/>
<path d="M129.954 173.033V171.567L131.42 170.439H132.604V178.333H131.307V172.018L129.954 173.033Z" fill="white"/>
<path d="M130.01 243.571V242.331L132.705 240.425C133.291 240.004 133.712 239.614 133.968 239.253C134.224 238.892 134.351 238.509 134.351 238.103C134.351 237.674 134.22 237.332 133.957 237.077C133.694 236.821 133.337 236.693 132.885 236.693C132.329 236.693 131.912 236.919 131.634 237.37C131.514 237.565 131.423 237.791 131.363 238.046H130.01C130.078 237.565 130.224 237.133 130.45 236.75C130.984 235.885 131.795 235.453 132.885 235.453C133.72 235.453 134.396 235.701 134.915 236.197C135.441 236.686 135.704 237.302 135.704 238.046C135.704 238.693 135.539 239.275 135.208 239.794C134.878 240.305 134.348 240.813 133.618 241.316L132.491 242.106L131.983 242.331V242.387L132.66 242.331H135.704V243.571H130.01Z" fill="white"/>
<rect x="50.7422" y="227.128" width="42.6872" height="25.7734" rx="12.8867" fill="white" fill-opacity="0.1"/>
<path d="M61.3277 241.373H62.6808C62.741 241.606 62.8424 241.805 62.9853 241.97C63.316 242.361 63.7971 242.557 64.4286 242.557C64.9322 242.557 65.3306 242.421 65.6238 242.151C65.917 241.88 66.0636 241.527 66.0636 241.091C66.0636 240.632 65.917 240.264 65.6238 239.986C65.3306 239.708 64.9322 239.568 64.4286 239.568C63.9625 239.568 63.5679 239.693 63.2446 239.941C63.1168 240.038 63.0041 240.159 62.9063 240.301H61.666L62.0043 235.678H66.7965V236.919H63.0755L62.9063 238.948H62.9627C63.083 238.828 63.2221 238.727 63.3799 238.644C63.7332 238.433 64.158 238.328 64.6541 238.328C65.4434 238.328 66.1012 238.591 66.6274 239.117C67.1536 239.644 67.4167 240.301 67.4167 241.091C67.4167 241.865 67.1385 242.511 66.5823 243.03C66.0335 243.541 65.3156 243.797 64.4286 243.797C63.2709 243.797 62.4102 243.395 61.8464 242.59C61.6059 242.237 61.433 241.831 61.3277 241.373ZM68.9416 242.624C68.2274 241.842 67.8704 240.843 67.8704 239.625C67.8704 238.407 68.2274 237.407 68.9416 236.625C69.6557 235.844 70.5202 235.453 71.535 235.453C72.5498 235.453 73.4143 235.844 74.1285 236.625C74.8426 237.407 75.1997 238.407 75.1997 239.625C75.1997 240.843 74.8426 241.842 74.1285 242.624C73.4143 243.406 72.5498 243.797 71.535 243.797C70.5202 243.797 69.6557 243.406 68.9416 242.624ZM69.8662 237.46C69.4377 237.971 69.2235 238.693 69.2235 239.625C69.2235 240.557 69.4377 241.279 69.8662 241.79C70.3022 242.301 70.8585 242.557 71.535 242.557C72.2116 242.557 72.7641 242.301 73.1926 241.79C73.6286 241.279 73.8466 240.557 73.8466 239.625C73.8466 238.693 73.6286 237.971 73.1926 237.46C72.7641 236.949 72.2116 236.693 71.535 236.693C70.8585 236.693 70.3022 236.949 69.8662 237.46ZM76.251 238.745C75.8901 238.377 75.7097 237.937 75.7097 237.426C75.7097 236.915 75.8901 236.479 76.251 236.118C76.6193 235.75 77.0591 235.566 77.5702 235.566C78.0814 235.566 78.5174 235.75 78.8782 236.118C79.2466 236.479 79.4308 236.915 79.4308 237.426C79.4308 237.937 79.2466 238.377 78.8782 238.745C78.5174 239.106 78.0814 239.287 77.5702 239.287C77.0591 239.287 76.6193 239.106 76.251 238.745ZM76.6682 243.571L81.404 235.678H82.5316L77.7958 243.571H76.6682ZM76.9275 236.738C76.7546 236.911 76.6682 237.14 76.6682 237.426C76.6682 237.712 76.7546 237.945 76.9275 238.125C77.1004 238.298 77.3147 238.385 77.5702 238.385C77.8258 238.385 78.0401 238.298 78.213 238.125C78.3859 237.945 78.4723 237.712 78.4723 237.426C78.4723 237.14 78.3859 236.911 78.213 236.738C78.0401 236.558 77.8258 236.468 77.5702 236.468C77.3147 236.468 77.1004 236.558 76.9275 236.738ZM80.3103 243.143C79.9494 242.775 79.769 242.335 79.769 241.824C79.769 241.312 79.9494 240.876 80.3103 240.516C80.6786 240.147 81.1184 239.963 81.6296 239.963C82.1407 239.963 82.5767 240.147 82.9376 240.516C83.3059 240.876 83.4901 241.312 83.4901 241.824C83.4901 242.335 83.3059 242.775 82.9376 243.143C82.5767 243.504 82.1407 243.684 81.6296 243.684C81.1184 243.684 80.6786 243.504 80.3103 243.143ZM80.9868 241.136C80.8139 241.309 80.7275 241.538 80.7275 241.824C80.7275 242.109 80.8139 242.342 80.9868 242.523C81.1597 242.696 81.374 242.782 81.6296 242.782C81.8851 242.782 82.0994 242.696 82.2723 242.523C82.4452 242.342 82.5316 242.109 82.5316 241.824C82.5316 241.538 82.4452 241.309 82.2723 241.136C82.0994 240.955 81.8851 240.865 81.6296 240.865C81.374 240.865 81.1597 240.955 80.9868 241.136Z" fill="white"/>
<path d="M93.4277 173.165L110.342 173.165" stroke="white" stroke-width="0.805419"/>
<path d="M93.4277 240.015L110.342 240.015" stroke="white" stroke-width="0.805419"/>
<path d="M20.5365 124.034V153.432C19.4626 160.144 23.9192 173.487 50.337 173.165" stroke="white" stroke-width="0.805419"/>
<path d="M20.2793 124.84L20.2793 220.282C19.2054 226.994 23.921 240.337 50.3387 240.015" stroke="white" stroke-width="0.805419"/>
<path d="M20.2793 127.103V287C19.2054 293.712 23.921 307.055 50.3387 306.733" stroke="white" stroke-width="0.805419"/>
<path d="M20.2793 193.103V353C19.2054 359.712 23.921 373.055 50.3387 372.733" stroke="white" stroke-width="0.805419"/>
<rect x="50" y="287" width="277" height="39" rx="6.05391" fill="url(#paint6_linear_313_363)"/>
<path d="M50 299.108C50 293.4 50 290.546 51.7731 288.773C53.5463 287 56.4001 287 62.1078 287H87.8546V325.66H62.1078C56.4001 325.66 53.5463 325.66 51.7731 323.887C50 322.114 50 319.26 50 313.552V299.108Z" fill="white" fill-opacity="0.1"/>
<path opacity="0.4" d="M69.8921 306.128H62.6836" stroke="white" stroke-width="0.756739" stroke-linecap="round" stroke-linejoin="round"/>
<path fill-rule="evenodd" clip-rule="evenodd" d="M69.8926 310.156L76.2852 306.128L69.8926 302.1V310.156Z" stroke="white" stroke-width="0.756739" stroke-linecap="round" stroke-linejoin="round"/>
<rect x="50" y="353" width="277" height="39" rx="6.05391" fill="url(#paint7_linear_313_363)"/>
<path d="M50 365.108C50 359.4 50 356.546 51.7731 354.773C53.5463 353 56.4001 353 62.1078 353H87.8546V391.66H62.1078C56.4001 391.66 53.5463 391.66 51.7731 389.887C50 388.114 50 385.26 50 379.552V365.108Z" fill="#F6C33F"/>
<path d="M74.2761 366.201L74.4177 369.203H74.059C73.9898 368.674 73.8954 368.297 73.7759 368.07C73.5808 367.705 73.3197 367.438 72.9925 367.268C72.6716 367.092 72.2468 367.004 71.7183 367.004H69.9155V376.782C69.9155 377.568 70.0005 378.059 70.1704 378.254C70.4095 378.519 70.7776 378.651 71.2747 378.651H71.7183V379H66.2912V378.651H66.7442C67.2853 378.651 67.6692 378.487 67.8957 378.16C68.0341 377.959 68.1033 377.499 68.1033 376.782V367.004H66.5649C65.9671 367.004 65.5424 367.048 65.2907 367.136C64.9635 367.255 64.6835 367.485 64.4506 367.825C64.2178 368.165 64.0794 368.624 64.0353 369.203H63.6767L63.8277 366.201H74.2761Z" fill="white"/>
<defs>
<linearGradient id="paint0_linear_313_363" x1="9.26232" y1="-5.79648e-06" x2="272.92" y2="134.525" gradientUnits="userSpaceOnUse">
<stop stop-color="#1E212C"/>
<stop offset="1" stop-color="#1B1E28"/>
</linearGradient>
<linearGradient id="paint1_linear_313_363" x1="117.282" y1="155.446" x2="216.698" y2="277.389" gradientUnits="userSpaceOnUse">
<stop stop-color="#1E212C"/>
<stop offset="1" stop-color="#1B1E28"/>
</linearGradient>
<linearGradient id="paint2_linear_313_363" x1="117.282" y1="220.685" x2="216.698" y2="342.628" gradientUnits="userSpaceOnUse">
<stop stop-color="#1E212C"/>
<stop offset="1" stop-color="#1B1E28"/>
</linearGradient>
<linearGradient id="paint3_linear_313_363" x1="9.26232" y1="-5.79648e-06" x2="272.92" y2="134.525" gradientUnits="userSpaceOnUse">
<stop stop-color="#1E212C"/>
<stop offset="1" stop-color="#1B1E28"/>
</linearGradient>
<linearGradient id="paint4_linear_313_363" x1="117.282" y1="155.446" x2="216.698" y2="277.389" gradientUnits="userSpaceOnUse">
<stop stop-color="#1E212C"/>
<stop offset="1" stop-color="#1B1E28"/>
</linearGradient>
<linearGradient id="paint5_linear_313_363" x1="117.282" y1="220.685" x2="216.698" y2="342.628" gradientUnits="userSpaceOnUse">
<stop stop-color="#1E212C"/>
<stop offset="1" stop-color="#1B1E28"/>
</linearGradient>
<linearGradient id="paint6_linear_313_363" x1="58.8733" y1="287" x2="152.047" y2="431.842" gradientUnits="userSpaceOnUse">
<stop stop-color="#1E212C"/>
<stop offset="1" stop-color="#1B1E28"/>
</linearGradient>
<linearGradient id="paint7_linear_313_363" x1="58.8733" y1="353" x2="152.047" y2="497.842" gradientUnits="userSpaceOnUse">
<stop stop-color="#1E212C"/>
<stop offset="1" stop-color="#1B1E28"/>
</linearGradient>
</defs>
</svg>
