<svg width="1168" height="322" viewBox="0 0 1168 322" fill="none" xmlns="http://www.w3.org/2000/svg">
<rect width="359" height="154" rx="12" fill="url(#paint0_linear_245_206)"/>
<rect x="137" y="193" width="269" height="48" rx="12" fill="url(#paint1_linear_245_206)"/>
<rect x="470" y="40" width="269" height="48" rx="12" fill="url(#paint2_linear_245_206)"/>
<rect x="799" y="40" width="269" height="48" rx="12" fill="url(#paint3_linear_245_206)"/>
<path d="M470 64C470 52.6863 470 47.0294 473.515 43.5147C477.029 40 482.686 40 494 40H517V88H494C482.686 88 477.029 88 473.515 84.4853C470 80.9706 470 75.3137 470 64Z" fill="white" fill-opacity="0.1"/>
<path d="M799 64C799 52.6863 799 47.0294 802.515 43.5147C806.029 40 811.686 40 823 40H846V88H823C811.686 88 806.029 88 802.515 84.4853C799 80.9706 799 75.3137 799 64Z" fill="#F6C33F"/>
<rect x="137" y="274" width="269" height="48" rx="12" fill="url(#paint4_linear_245_206)"/>
<path d="M0 24C0 12.6863 0 7.02944 3.51472 3.51472C7.02944 0 12.6863 0 24 0H50V154H24C12.6863 154 7.02944 154 3.51472 150.485C0 146.971 0 141.314 0 130V24Z" fill="#F6C33F"/>
<path d="M32.0508 70.1094L32.2266 73.8359H31.7812C31.6953 73.1797 31.5781 72.7109 31.4297 72.4297C31.1875 71.9766 30.8633 71.6445 30.457 71.4336C30.0586 71.2148 29.5312 71.1055 28.875 71.1055H26.6367V83.2461C26.6367 84.2227 26.7422 84.832 26.9531 85.0742C27.25 85.4023 27.707 85.5664 28.3242 85.5664H28.875V86H22.1367V85.5664H22.6992C23.3711 85.5664 23.8477 85.3633 24.1289 84.957C24.3008 84.707 24.3867 84.1367 24.3867 83.2461V71.1055H22.4766C21.7344 71.1055 21.207 71.1602 20.8945 71.2695C20.4883 71.418 20.1406 71.7031 19.8516 72.125C19.5625 72.5469 19.3906 73.1172 19.3359 73.8359H18.8906L19.0781 70.1094H32.0508Z" fill="white"/>
<path d="M829.051 56.1094L829.227 59.8359H828.781C828.695 59.1797 828.578 58.7109 828.43 58.4297C828.188 57.9766 827.863 57.6445 827.457 57.4336C827.059 57.2148 826.531 57.1055 825.875 57.1055H823.637V69.2461C823.637 70.2227 823.742 70.832 823.953 71.0742C824.25 71.4023 824.707 71.5664 825.324 71.5664H825.875V72H819.137V71.5664H819.699C820.371 71.5664 820.848 71.3633 821.129 70.957C821.301 70.707 821.387 70.1367 821.387 69.2461V57.1055H819.477C818.734 57.1055 818.207 57.1602 817.895 57.2695C817.488 57.418 817.141 57.7031 816.852 58.125C816.562 58.5469 816.391 59.1172 816.336 59.8359H815.891L816.078 56.1094H829.051Z" fill="white"/>
<rect x="63" y="198" width="53" height="32" rx="16" fill="white" fill-opacity="0.1"/>
<path d="M75.745 215.27H77.425C77.4997 215.559 77.6257 215.807 77.803 216.012C78.2137 216.497 78.811 216.74 79.595 216.74C80.2203 216.74 80.715 216.572 81.079 216.236C81.443 215.9 81.625 215.461 81.625 214.92C81.625 214.351 81.443 213.893 81.079 213.548C80.715 213.203 80.2203 213.03 79.595 213.03C79.0163 213.03 78.5263 213.184 78.125 213.492C77.9663 213.613 77.8263 213.763 77.705 213.94H76.165L76.585 208.2H82.535V209.74H77.915L77.705 212.26H77.775C77.9243 212.111 78.097 211.985 78.293 211.882C78.7317 211.621 79.259 211.49 79.875 211.49C80.855 211.49 81.6717 211.817 82.325 212.47C82.9783 213.123 83.305 213.94 83.305 214.92C83.305 215.881 82.9597 216.684 82.269 217.328C81.5877 217.963 80.6963 218.28 79.595 218.28C78.1577 218.28 77.089 217.781 76.389 216.782C76.0903 216.343 75.8757 215.839 75.745 215.27ZM85.1983 216.824C84.3116 215.853 83.8683 214.612 83.8683 213.1C83.8683 211.588 84.3116 210.347 85.1983 209.376C86.0849 208.405 87.1583 207.92 88.4183 207.92C89.6783 207.92 90.7516 208.405 91.6383 209.376C92.5249 210.347 92.9683 211.588 92.9683 213.1C92.9683 214.612 92.5249 215.853 91.6383 216.824C90.7516 217.795 89.6783 218.28 88.4183 218.28C87.1583 218.28 86.0849 217.795 85.1983 216.824ZM86.3463 210.412C85.8143 211.047 85.5483 211.943 85.5483 213.1C85.5483 214.257 85.8143 215.153 86.3463 215.788C86.8876 216.423 87.5783 216.74 88.4183 216.74C89.2583 216.74 89.9443 216.423 90.4763 215.788C91.0176 215.153 91.2883 214.257 91.2883 213.1C91.2883 211.943 91.0176 211.047 90.4763 210.412C89.9443 209.777 89.2583 209.46 88.4183 209.46C87.5783 209.46 86.8876 209.777 86.3463 210.412ZM94.2736 212.008C93.8256 211.551 93.6016 211.005 93.6016 210.37C93.6016 209.735 93.8256 209.194 94.2736 208.746C94.7309 208.289 95.2769 208.06 95.9116 208.06C96.5462 208.06 97.0876 208.289 97.5356 208.746C97.9929 209.194 98.2216 209.735 98.2216 210.37C98.2216 211.005 97.9929 211.551 97.5356 212.008C97.0876 212.456 96.5462 212.68 95.9116 212.68C95.2769 212.68 94.7309 212.456 94.2736 212.008ZM94.7916 218L100.672 208.2H102.072L96.1916 218H94.7916ZM95.1136 209.516C94.8989 209.731 94.7916 210.015 94.7916 210.37C94.7916 210.725 94.8989 211.014 95.1136 211.238C95.3282 211.453 95.5942 211.56 95.9116 211.56C96.2289 211.56 96.4949 211.453 96.7096 211.238C96.9242 211.014 97.0316 210.725 97.0316 210.37C97.0316 210.015 96.9242 209.731 96.7096 209.516C96.4949 209.292 96.2289 209.18 95.9116 209.18C95.5942 209.18 95.3282 209.292 95.1136 209.516ZM99.3136 217.468C98.8656 217.011 98.6416 216.465 98.6416 215.83C98.6416 215.195 98.8656 214.654 99.3136 214.206C99.7709 213.749 100.317 213.52 100.952 213.52C101.586 213.52 102.128 213.749 102.576 214.206C103.033 214.654 103.262 215.195 103.262 215.83C103.262 216.465 103.033 217.011 102.576 217.468C102.128 217.916 101.586 218.14 100.952 218.14C100.317 218.14 99.7709 217.916 99.3136 217.468ZM100.154 214.976C99.9389 215.191 99.8316 215.475 99.8316 215.83C99.8316 216.185 99.9389 216.474 100.154 216.698C100.368 216.913 100.634 217.02 100.952 217.02C101.269 217.02 101.535 216.913 101.75 216.698C101.964 216.474 102.072 216.185 102.072 215.83C102.072 215.475 101.964 215.191 101.75 214.976C101.535 214.752 101.269 214.64 100.952 214.64C100.634 214.64 100.368 214.752 100.154 214.976Z" fill="white"/>
<path d="M161.35 214.42V212.6L163.17 211.2H164.64V221H163.03V213.16L161.35 214.42Z" fill="white"/>
<path d="M161.42 302V300.46L164.766 298.094C165.494 297.571 166.017 297.086 166.334 296.638C166.651 296.19 166.81 295.714 166.81 295.21C166.81 294.678 166.647 294.253 166.32 293.936C165.993 293.619 165.55 293.46 164.99 293.46C164.299 293.46 163.781 293.74 163.436 294.3C163.287 294.543 163.175 294.823 163.1 295.14H161.42C161.504 294.543 161.686 294.006 161.966 293.53C162.629 292.457 163.637 291.92 164.99 291.92C166.026 291.92 166.866 292.228 167.51 292.844C168.163 293.451 168.49 294.216 168.49 295.14C168.49 295.943 168.285 296.666 167.874 297.31C167.463 297.945 166.805 298.575 165.9 299.2L164.5 300.18L163.87 300.46V300.53L164.71 300.46H168.49V302H161.42Z" fill="white"/>
<rect x="63" y="282" width="53" height="32" rx="16" fill="white" fill-opacity="0.1"/>
<path d="M75.745 299.27H77.425C77.4997 299.559 77.6257 299.807 77.803 300.012C78.2137 300.497 78.811 300.74 79.595 300.74C80.2203 300.74 80.715 300.572 81.079 300.236C81.443 299.9 81.625 299.461 81.625 298.92C81.625 298.351 81.443 297.893 81.079 297.548C80.715 297.203 80.2203 297.03 79.595 297.03C79.0163 297.03 78.5263 297.184 78.125 297.492C77.9663 297.613 77.8263 297.763 77.705 297.94H76.165L76.585 292.2H82.535V293.74H77.915L77.705 296.26H77.775C77.9243 296.111 78.097 295.985 78.293 295.882C78.7317 295.621 79.259 295.49 79.875 295.49C80.855 295.49 81.6717 295.817 82.325 296.47C82.9783 297.123 83.305 297.94 83.305 298.92C83.305 299.881 82.9597 300.684 82.269 301.328C81.5877 301.963 80.6963 302.28 79.595 302.28C78.1577 302.28 77.089 301.781 76.389 300.782C76.0903 300.343 75.8757 299.839 75.745 299.27ZM85.1983 300.824C84.3116 299.853 83.8683 298.612 83.8683 297.1C83.8683 295.588 84.3116 294.347 85.1983 293.376C86.0849 292.405 87.1583 291.92 88.4183 291.92C89.6783 291.92 90.7516 292.405 91.6383 293.376C92.5249 294.347 92.9683 295.588 92.9683 297.1C92.9683 298.612 92.5249 299.853 91.6383 300.824C90.7516 301.795 89.6783 302.28 88.4183 302.28C87.1583 302.28 86.0849 301.795 85.1983 300.824ZM86.3463 294.412C85.8143 295.047 85.5483 295.943 85.5483 297.1C85.5483 298.257 85.8143 299.153 86.3463 299.788C86.8876 300.423 87.5783 300.74 88.4183 300.74C89.2583 300.74 89.9443 300.423 90.4763 299.788C91.0176 299.153 91.2883 298.257 91.2883 297.1C91.2883 295.943 91.0176 295.047 90.4763 294.412C89.9443 293.777 89.2583 293.46 88.4183 293.46C87.5783 293.46 86.8876 293.777 86.3463 294.412ZM94.2736 296.008C93.8256 295.551 93.6016 295.005 93.6016 294.37C93.6016 293.735 93.8256 293.194 94.2736 292.746C94.7309 292.289 95.2769 292.06 95.9116 292.06C96.5462 292.06 97.0876 292.289 97.5356 292.746C97.9929 293.194 98.2216 293.735 98.2216 294.37C98.2216 295.005 97.9929 295.551 97.5356 296.008C97.0876 296.456 96.5462 296.68 95.9116 296.68C95.2769 296.68 94.7309 296.456 94.2736 296.008ZM94.7916 302L100.672 292.2H102.072L96.1916 302H94.7916ZM95.1136 293.516C94.8989 293.731 94.7916 294.015 94.7916 294.37C94.7916 294.725 94.8989 295.014 95.1136 295.238C95.3282 295.453 95.5942 295.56 95.9116 295.56C96.2289 295.56 96.4949 295.453 96.7096 295.238C96.9242 295.014 97.0316 294.725 97.0316 294.37C97.0316 294.015 96.9242 293.731 96.7096 293.516C96.4949 293.292 96.2289 293.18 95.9116 293.18C95.5942 293.18 95.3282 293.292 95.1136 293.516ZM99.3136 301.468C98.8656 301.011 98.6416 300.465 98.6416 299.83C98.6416 299.195 98.8656 298.654 99.3136 298.206C99.7709 297.749 100.317 297.52 100.952 297.52C101.586 297.52 102.128 297.749 102.576 298.206C103.033 298.654 103.262 299.195 103.262 299.83C103.262 300.465 103.033 301.011 102.576 301.468C102.128 301.916 101.586 302.14 100.952 302.14C100.317 302.14 99.7709 301.916 99.3136 301.468ZM100.154 298.976C99.9389 299.191 99.8316 299.475 99.8316 299.83C99.8316 300.185 99.9389 300.474 100.154 300.698C100.368 300.913 100.634 301.02 100.952 301.02C101.269 301.02 101.535 300.913 101.75 300.698C101.964 300.474 102.072 300.185 102.072 299.83C102.072 299.475 101.964 299.191 101.75 298.976C101.535 298.752 101.269 298.64 100.952 298.64C100.634 298.64 100.368 298.752 100.154 298.976Z" fill="white"/>
<path opacity="0.4" d="M494.7 63.7488H485.75" stroke="white" stroke-width="1.5" stroke-linecap="round" stroke-linejoin="round"/>
<path fill-rule="evenodd" clip-rule="evenodd" d="M494.699 68.7498L502.636 63.7488L494.699 58.7478V68.7498Z" stroke="white" stroke-width="1.5" stroke-linecap="round" stroke-linejoin="round"/>
<rect x="1120" y="40" width="48" height="48" rx="24" fill="url(#paint5_linear_245_206)"/>
<path d="M1149 64H1139" stroke="white" stroke-linecap="round"/>
<path d="M1144 69V59" stroke="white" stroke-linecap="round"/>
<path fill-rule="evenodd" clip-rule="evenodd" d="M1144 74C1149.52 74 1154 69.5228 1154 64C1154 58.4772 1149.52 54 1144 54C1138.48 54 1134 58.4772 1134 64C1134 69.5228 1138.48 74 1144 74Z" stroke="white"/>
<rect x="517" y="141" width="48" height="48" rx="24" fill="url(#paint6_linear_245_206)"/>
<path d="M546 165H536" stroke="white" stroke-linecap="round"/>
<path d="M541 170V160" stroke="white" stroke-linecap="round"/>
<path fill-rule="evenodd" clip-rule="evenodd" d="M541 175C546.523 175 551 170.523 551 165C551 159.477 546.523 155 541 155C535.477 155 531 159.477 531 165C531 170.523 535.477 175 541 175Z" stroke="white"/>
<path d="M359 64L470 64" stroke="white"/>
<path d="M116 215L137 215" stroke="white"/>
<path d="M116 298L137 298" stroke="white"/>
<path d="M739 64L799 64" stroke="white"/>
<path d="M1068 64L1120 64" stroke="white"/>
<path d="M359 64H387.5C397.167 64 416.4 74.8 416 118V137C415.667 146.5 421 165.6 445 166H516.5" stroke="white"/>
<path d="M25.499 154V190.5C24.1656 198.833 29.699 215.4 62.499 215" stroke="white"/>
<path d="M25.178 155L25.178 273.5C23.8447 281.833 29.6995 298.4 62.4995 298" stroke="white"/>
<defs>
<linearGradient id="paint0_linear_245_206" x1="11.5" y1="-7.19686e-06" x2="338.854" y2="167.025" gradientUnits="userSpaceOnUse">
<stop stop-color="#1E212C"/>
<stop offset="1" stop-color="#1B1E28"/>
</linearGradient>
<linearGradient id="paint1_linear_245_206" x1="145.617" y1="193" x2="269.051" y2="344.403" gradientUnits="userSpaceOnUse">
<stop stop-color="#1E212C"/>
<stop offset="1" stop-color="#1B1E28"/>
</linearGradient>
<linearGradient id="paint2_linear_245_206" x1="478.617" y1="40" x2="602.051" y2="191.403" gradientUnits="userSpaceOnUse">
<stop stop-color="#1E212C"/>
<stop offset="1" stop-color="#1B1E28"/>
</linearGradient>
<linearGradient id="paint3_linear_245_206" x1="807.617" y1="40" x2="931.051" y2="191.403" gradientUnits="userSpaceOnUse">
<stop stop-color="#1E212C"/>
<stop offset="1" stop-color="#1B1E28"/>
</linearGradient>
<linearGradient id="paint4_linear_245_206" x1="145.617" y1="274" x2="269.051" y2="425.403" gradientUnits="userSpaceOnUse">
<stop stop-color="#1E212C"/>
<stop offset="1" stop-color="#1B1E28"/>
</linearGradient>
<linearGradient id="paint5_linear_245_206" x1="1121.54" y1="40" x2="1174.18" y2="51.5217" gradientUnits="userSpaceOnUse">
<stop stop-color="#1E212C"/>
<stop offset="1" stop-color="#1B1E28"/>
</linearGradient>
<linearGradient id="paint6_linear_245_206" x1="518.538" y1="141" x2="571.179" y2="152.522" gradientUnits="userSpaceOnUse">
<stop stop-color="#1E212C"/>
<stop offset="1" stop-color="#1B1E28"/>
</linearGradient>
</defs>
</svg>
