<svg width="22" height="22" viewBox="0 0 22 22" fill="none" xmlns="http://www.w3.org/2000/svg">
<g clip-path="url(#clip0_20_2548)">
<path d="M11 22C17.0751 22 22 17.0751 22 11C22 4.92487 17.0751 0 11 0C4.92487 0 0 4.92487 0 11C0 17.0751 4.92487 22 11 22Z" fill="url(#paint0_linear_20_2548)"/>
<path d="M5.79014 14.1847C5.8847 14.091 6.01248 14.0384 6.14565 14.0384H18.4631C18.5133 14.0376 18.5625 14.0519 18.6045 14.0795C18.6464 14.107 18.6791 14.1465 18.6984 14.1928C18.7177 14.2391 18.7227 14.2901 18.7127 14.3393C18.7027 14.3884 18.6782 14.4335 18.6424 14.4686L16.2106 16.9004C16.1156 16.9957 15.9866 17.0494 15.8521 17.0498H3.53457C3.48444 17.0496 3.43546 17.0347 3.39381 17.0068C3.35217 16.9789 3.31971 16.9392 3.30055 16.8929C3.28138 16.8466 3.27635 16.7956 3.2861 16.7465C3.29584 16.6973 3.31993 16.6521 3.35532 16.6166L5.79014 14.1847Z" fill="white"/>
<path d="M5.79014 5.09979C5.88524 5.00682 6.01267 4.95435 6.14565 4.9534H18.4631C18.5133 4.95267 18.5625 4.96699 18.6045 4.99451C18.6464 5.02203 18.6791 5.06149 18.6984 5.1078C18.7177 5.15411 18.7227 5.20513 18.7127 5.2543C18.7027 5.30346 18.6782 5.34849 18.6424 5.3836L16.2106 7.81543C16.1156 7.91075 15.9866 7.96447 15.8521 7.9648H3.53457C3.48444 7.96468 3.43546 7.94972 3.39381 7.92181C3.35217 7.8939 3.31971 7.85429 3.30055 7.80796C3.28138 7.76164 3.27635 7.71067 3.2861 7.6615C3.29584 7.61232 3.31993 7.56713 3.35532 7.53162L5.79014 5.09979Z" fill="white"/>
<path d="M16.2106 9.61373C16.1156 9.51841 15.9866 9.46469 15.8521 9.46436H3.53457C3.48444 9.46448 3.43546 9.47944 3.39381 9.50735C3.35217 9.53526 3.31971 9.57487 3.30055 9.6212C3.28138 9.66752 3.27635 9.71849 3.2861 9.76766C3.29584 9.81684 3.31993 9.86203 3.35532 9.89754L5.79014 12.3294C5.8847 12.4231 6.01248 12.4758 6.14565 12.4758H18.4631C18.5133 12.4765 18.5625 12.4622 18.6045 12.4346C18.6464 12.4071 18.6791 12.3677 18.6984 12.3214C18.7177 12.2751 18.7227 12.224 18.7127 12.1749C18.7027 12.1257 18.6782 12.0807 18.6424 12.0456L16.2106 9.61373Z" fill="white"/>
</g>
<defs>
<linearGradient id="paint0_linear_20_2548" x1="20.6437" y1="1.16811" x2="2.76046" y2="19.4039" gradientUnits="userSpaceOnUse">
<stop stop-color="#00FFA3"/>
<stop offset="1" stop-color="#DC1FFF"/>
</linearGradient>
<clipPath id="clip0_20_2548">
<rect width="22" height="22" fill="white"/>
</clipPath>
</defs>
</svg>
