<svg width="24" height="24" viewBox="0 0 24 24" fill="none" xmlns="http://www.w3.org/2000/svg">
<g clip-path="url(#clip0_1_1831)">
<path d="M4.98788 11.4226C4.98785 11.2886 5.0143 11.1559 5.0657 11.0322C5.1171 10.9085 5.19244 10.7961 5.28739 10.7016C5.38235 10.607 5.49504 10.5322 5.619 10.4814C5.74296 10.4305 5.87574 10.4047 6.00972 10.4053L7.70383 10.4109C7.97395 10.4109 8.23301 10.5182 8.42401 10.7092C8.61502 10.9002 8.72232 11.1592 8.72232 11.4293V17.8354C8.91316 17.7789 9.15792 17.7186 9.42605 17.6557C9.61222 17.6118 9.77813 17.5064 9.89689 17.3565C10.0156 17.2066 10.0803 17.021 10.0803 16.8297V8.88356C10.0803 8.61341 10.1876 8.35431 10.3786 8.16326C10.5696 7.97222 10.8287 7.86486 11.0988 7.86482H12.7964C13.0665 7.86489 13.3256 7.97225 13.5166 8.16329C13.7076 8.35433 13.8149 8.61342 13.8149 8.88356V16.2587C13.8149 16.2587 14.2397 16.0866 14.6538 15.9119C14.8076 15.8468 14.9388 15.7379 15.0311 15.5988C15.1234 15.4597 15.1727 15.2964 15.1728 15.1295V6.33688C15.1728 6.20314 15.1991 6.0707 15.2503 5.94714C15.3015 5.82358 15.3765 5.7113 15.471 5.61672C15.5656 5.52215 15.6779 5.44712 15.8014 5.39594C15.925 5.34475 16.0574 5.31839 16.1911 5.31838H17.8887C18.1588 5.31838 18.4179 5.42569 18.6089 5.61669C18.7999 5.80769 18.9072 6.06675 18.9073 6.33688V13.5771C20.3789 12.5106 21.8704 11.2277 23.054 9.68523C23.2258 9.46133 23.3394 9.1984 23.3848 8.91991C23.4302 8.64141 23.4059 8.35601 23.3142 8.08916C22.5134 5.75522 21.0112 3.72562 19.013 2.27786C17.0149 0.830092 14.6183 0.0348426 12.1511 0.000843373C5.4979 -0.0885311 -0.000595993 5.34248 5.75687e-05 11.9965C-0.00647503 14.102 0.543066 16.172 1.59311 17.997C1.73792 18.2466 1.95096 18.4497 2.2072 18.5825C2.46345 18.7152 2.75225 18.7721 3.03969 18.7464C3.36083 18.7181 3.76065 18.6782 4.23595 18.6224C4.44283 18.5988 4.63382 18.5 4.77256 18.3447C4.91129 18.1895 4.98807 17.9886 4.98828 17.7804V11.4226" fill="white"/>
<path d="M4.95125 21.6966C6.74053 22.9982 8.85502 23.7795 11.0608 23.954C13.2665 24.1286 15.4776 23.6895 17.4493 22.6854C19.421 21.6813 21.0765 20.1514 22.2327 18.2648C23.3889 16.3783 24.0006 14.2087 24.0003 11.996C24.0003 11.7198 23.9874 11.4467 23.969 11.175C19.5867 17.7107 11.4953 20.7665 4.95117 21.6968" fill="#BFCFDA"/>
</g>
<defs>
<clipPath id="clip0_1_1831">
<rect width="24" height="23.9912" fill="white"/>
</clipPath>
</defs>
</svg>
